<?xml version="1.0" encoding="UTF-8" standalone="no"?>
<svg
   xmlns:dc="http://purl.org/dc/elements/1.1/"
   xmlns:cc="http://creativecommons.org/ns#"
   xmlns:rdf="http://www.w3.org/1999/02/22-rdf-syntax-ns#"
   xmlns:svg="http://www.w3.org/2000/svg"
   xmlns="http://www.w3.org/2000/svg"
   viewBox="0 0 666.66669 666.66669"
   height="666.66669"
   width="666.66669"
   xml:space="preserve"
   id="svg2"
   version="1.1"><metadata
     id="metadata8"><rdf:RDF><cc:Work
         rdf:about=""><dc:format>image/svg+xml</dc:format><dc:type
           rdf:resource="http://purl.org/dc/dcmitype/StillImage" /></cc:Work></rdf:RDF></metadata><defs
     id="defs6" /><g
     transform="matrix(1.3333333,0,0,-1.3333333,0,666.66667)"
     id="g10"><g
       transform="scale(0.1)"
       id="g12"><path
         id="path14"
         style="fill:#ffffff;fill-opacity:1;fill-rule:nonzero;stroke:none"
         d="M 5000,0 H 0 V 5000 H 5000 V 0" /><path
         id="path16"
         style="fill:#f3fbfe;fill-opacity:1;fill-rule:nonzero;stroke:none"
         d="m 1183.99,1468.46 c 183.32,-91.34 426.66,-23.69 546.97,142.06 120.31,165.75 113.68,408.49 -4.94,575.45 -59.3,83.47 -146.1,150.21 -246.22,171.6 -131.12,28 -270.61,-25.6 -368.96,-116.74 -111.391,-103.22 -177.043,-256.64 -165.668,-408.08 11.375,-151.44 102.888,-296.56 238.818,-364.29" /><path
         id="path18"
         style="fill:#f3fbfe;fill-opacity:1;fill-rule:nonzero;stroke:none"
         d="m 3821.77,3966.51 c 87.03,-56.16 205,-60.34 295.78,-10.48 42.08,23.1 77.86,56.45 108.37,93.51 82.78,100.56 128.39,237.26 98.27,363.99 -30.13,126.73 -146.47,234.47 -276.72,233.1 -77.77,-0.82 -151.55,-38.14 -210.77,-88.56 -87.23,-74.25 -149.02,-181.46 -156.2,-295.79 -7.18,-114.33 45.02,-233.65 141.27,-295.77" /><path
         id="path20"
         style="fill:#f3fbfe;fill-opacity:1;fill-rule:nonzero;stroke:none"
         d="m 4335.64,2968.58 c 52.66,-246.04 10.61,-507.88 -98.21,-734.75 -108.82,-226.88 -281.78,-419.73 -483.56,-570.05 -116.22,-86.59 -245.1,-160.95 -387.01,-190.39 -141.91,-29.45 -298.79,-9.34 -414.46,77.98 -115.67,87.32 -178.94,248.29 -130.26,384.8 43.21,121.19 159.63,200.48 276.73,253.77 117.11,53.29 243.63,90.29 346.73,167.26 205.31,153.26 272.05,424.62 380.77,656.62 54.11,115.47 147.42,239.56 274.68,231.57 129.89,-8.16 207.36,-149.54 234.59,-276.81" /><path
         id="path22"
         style="fill:#f3fbfe;fill-opacity:1;fill-rule:nonzero;stroke:none"
         d="m 1228.23,2756.26 c -66.57,-94.61 -204.29,-118.32 -313.058,-78.9 -108.766,39.43 -192.043,128.9 -256.813,224.76 -209.179,309.61 -260.726,720.12 -134.586,1071.84 126.141,351.71 426.844,635.89 785.117,741.98 62.39,18.48 128.14,31.9 192.33,21.26 64.19,-10.64 126.86,-49.49 150.8,-109.99 44.32,-112.01 -53.77,-224.19 -132.11,-315.69 -266.97,-311.81 -377.32,-751.4 -289.28,-1152.33 29.75,-135.5 77.44,-289.47 -2.4,-402.93" /><path
         id="path24"
         style="fill:#f3fbfe;fill-opacity:1;fill-rule:nonzero;stroke:none"
         d="m 3580.33,3383.06 c 0,-588.19 -476.82,-1065 -1065,-1065 -588.19,0 -1065,476.81 -1065,1065 0,588.18 476.81,1064.99 1065,1064.99 588.18,0 1065,-476.81 1065,-1064.99" /><path
         id="path26"
         style="fill:#663f3c;fill-opacity:1;fill-rule:nonzero;stroke:none"
         d="m 1945.02,3101.22 c -7.85,0 -15.5,0.81 -23,2.06 18.99,-41.18 59.97,-106.21 144.2,-163.1 -31.87,51.46 -58.43,107.92 -79.47,167.42 -13.18,-4.14 -27.19,-6.38 -41.73,-6.38" /><path
         id="path28"
         style="fill:#663f3c;fill-opacity:1;fill-rule:nonzero;stroke:none"
         d="m 3040.92,3106.46 c -21.37,-60.96 -48.58,-118.67 -81.34,-171.1 78.79,54.23 122.48,118.47 146.36,168.61 -8.92,-1.79 -18.14,-2.75 -27.58,-2.75 -12.99,0 -25.51,1.91 -37.44,5.24" /><path
         id="path30"
         style="fill:#639d60;fill-opacity:1;fill-rule:nonzero;stroke:none"
         d="m 4301.91,1437.43 c -1.91,91.87 -9.99,166.07 -9.99,166.07 0,0 -32.33,-63.54 -66.81,-145.82 7.88,-38.62 14.92,-78.68 19.97,-117.87 18.42,33.62 37.87,66.71 56.83,97.62" /><path
         id="path32"
         style="fill:#639d60;fill-opacity:1;fill-rule:nonzero;stroke:none"
         d="m 4098.54,1420.69 c -36.81,107.85 -81.75,201.85 -81.75,201.85 0,0 -11.71,-87.31 -16.38,-190.15 28.41,-38.56 57.77,-80.57 84.38,-122.69 3.14,36.33 8,73.97 13.75,110.99" /><path
         id="path34"
         style="fill:#71b36a;fill-opacity:1;fill-rule:nonzero;stroke:none"
         d="m 4235.05,1113.06 h 93.77 c 73.96,177.16 89.78,500.45 89.78,500.45 0,0 -55.79,-76.81 -116.69,-176.08 -18.96,-30.91 -38.41,-64 -56.83,-97.62 11.53,-89.53 12.67,-174.37 -10.03,-226.75" /><path
         id="path36"
         style="fill:#71b36a;fill-opacity:1;fill-rule:nonzero;stroke:none"
         d="m 4096.21,1113.06 c -17.02,46.46 -18.19,118.46 -11.42,196.64 -26.61,42.12 -55.97,84.13 -84.38,122.69 -71.12,96.53 -136.14,171.32 -136.14,171.32 0,0 44,-320.62 133.14,-490.65 h 98.8" /><path
         id="path38"
         style="fill:#89d378;fill-opacity:1;fill-rule:nonzero;stroke:none"
         d="m 4096.21,1113.06 h 138.84 c 22.7,52.38 21.56,137.22 10.03,226.75 -5.05,39.19 -12.09,79.25 -19.97,117.87 -27.49,134.71 -65.3,251.72 -65.3,251.72 0,0 -38.01,-139.19 -61.27,-288.71 -5.75,-37.02 -10.61,-74.66 -13.75,-110.99 -6.77,-78.18 -5.6,-150.18 11.42,-196.64" /><path
         id="path40"
         style="fill:#f69412;fill-opacity:1;fill-rule:nonzero;stroke:none"
         d="m 4352.36,1113.06 h -385.11 l 47.46,-331.751 h 290.19 l 47.46,331.751" /><path
         id="path42"
         style="fill:#f9b26d;fill-opacity:1;fill-rule:nonzero;stroke:none"
         d="m 3092.75,3338.07 c -0.17,0 -0.34,0.04 -0.52,0.04 -8.14,-79.37 -25.43,-157.82 -51.31,-231.65 11.93,-3.33 24.45,-5.24 37.44,-5.24 9.44,0 18.66,0.96 27.58,2.75 63.72,12.81 111.72,69.06 111.72,136.55 0,54.13 -30.95,100.94 -76.05,124 -13.41,-16.84 -29.59,-26.45 -48.86,-26.45" /><path
         id="path44"
         style="fill:#f9b26d;fill-opacity:1;fill-rule:nonzero;stroke:none"
         d="m 1986.75,3107.6 c -26.04,73.65 -43.53,151.88 -51.88,231.02 -1.92,-0.24 -3.84,-0.56 -5.8,-0.55 -19.05,0.11 -37.48,8.13 -54.53,22.45 -41.13,-24.21 -68.82,-68.82 -68.82,-120 0,-69.08 50.34,-126.26 116.3,-137.24 7.5,-1.25 15.15,-2.06 23,-2.06 14.54,0 28.55,2.24 41.73,6.38" /><path
         id="path46"
         style="fill:#f15359;fill-opacity:1;fill-rule:nonzero;stroke:none"
         d="m 3376.42,1063.31 c 2.35,-6.08 4.93,-12.74 7.64,-19.3 29.1,19.96 71.08,33.96 130.43,34.88 23.41,0.36 44.66,-2.14 63.96,-6.65 -39.24,192.59 -79.1,358.71 -118.61,501.87 V 1170.8 c 0,-51.79 -35.48,-95.17 -83.42,-107.49" /><path
         id="path48"
         style="fill:#f15359;fill-opacity:1;fill-rule:nonzero;stroke:none"
         d="m 1510.33,1033.06 c 13.21,-7.85 21.88,-18.72 27.55,-30.59 12.92,17.63 27.5,46.18 33.32,52.81 8.65,9.86 18.05,22.45 28.05,37.26 -19.93,20.09 -32.26,47.73 -32.26,78.26 v 445.86 c -74.76,-166.76 -160.22,-366.38 -257.57,-604.84 58.04,45.36 124.99,66.31 200.91,21.24" /><path
         id="path50"
         style="fill:#f9b26d;fill-opacity:1;fill-rule:nonzero;stroke:none"
         d="m 2709.42,2566.61 c 0,0 0.26,-0.16 0.38,-0.23 -10.28,31.22 -24.53,76.27 -38.02,124.97 -48.55,-16.87 -100.8,-26.1 -156.6,-26.1 -58.95,0 -113.93,10.43 -164.87,29.16 -6.06,-42.39 -14.3,-90.92 -24.34,-128.06 5.96,-5.47 146.57,-134.43 191.59,-151.8 45.98,17.74 191.86,152.06 191.86,152.06" /><path
         id="path52"
         style="fill:#f68f45;fill-opacity:1;fill-rule:nonzero;stroke:none"
         d="m 2517.45,2414.45 c 0.07,0 0.14,0 0.21,0 -0.03,0.03 -0.1,0.1 -0.1,0.1 0,0 -0.09,-0.08 -0.11,-0.1" /><path
         id="path54"
         style="fill:#ef3b46;fill-opacity:1;fill-rule:nonzero;stroke:none"
         d="m 2829.55,816.461 v 3.078 c 0,22.781 18.47,41.25 41.25,41.25 h 413.21 c -5.61,62.641 -13.07,129.43 -21.96,198.901 h -656.12 l 8.74,-172.811 h 140.81 c 26.73,0 48.4,-21.668 48.4,-48.399 v -11.011 c 0,-21.887 -14.63,-40.18 -34.58,-46.16 h 80.16 c -11.89,7.242 -19.91,20.211 -19.91,35.152" /><path
         id="path56"
         style="fill:#ef3b46;fill-opacity:1;fill-rule:nonzero;stroke:none"
         d="m 2222.94,827.469 v 11.011 c 0,26.731 21.68,48.399 48.41,48.399 h 140.81 l 8.74,172.811 h -570.4 c -11.26,-122.729 -19.6,-221.51 -24.27,-278.381 h 431.3 c -19.95,5.98 -34.59,24.273 -34.59,46.16" /><path
         id="path58"
         style="fill:#f15359;fill-opacity:1;fill-rule:nonzero;stroke:none"
         d="m 3179.28,2286.09 c -106.26,169.46 -178.95,181.97 -178.95,181.97 l -218.18,43.43 c -9.32,-24.43 -102.54,-198.31 -131.29,-195.93 -29.99,2.47 -131.01,96.84 -133.2,98.89 -0.07,0 -0.14,0 -0.21,0 -2.35,-2.2 -103.23,-96.42 -133.2,-98.89 -29.64,-2.45 -127.79,182.39 -131.91,197.76 l -201.19,-45.11 c 0,0 -37.34,-2.52 -147.22,-182.12 h 1275.35" /><path
         id="path60"
         style="fill:#f9b26d;fill-opacity:1;fill-rule:nonzero;stroke:none"
         d="m 3384.06,1044.01 c -74.57,-51.158 -64.56,-141.541 -45.4,-151.791 26.63,-14.239 46.67,50.84 46.67,50.84 0,0 5.83,-3.797 29.33,-34.477 13.16,-17.172 13.13,-34 14.64,-47.793 h 40.39 c 1.15,8.992 1.37,18.481 1.37,25.883 0,23.008 -18.8,63.547 -18.8,63.547 0,0 48.57,-31.778 64.23,-58.071 5.88,-9.859 9,-20.976 11.76,-31.359 h 54.15 c 2.65,12.07 2.8,25.02 -0.94,35.492 -7.58,21.199 -33.63,69.278 -33.63,69.278 0,0 52.63,-35.758 67.36,-59.168 10.96,-17.422 15.6,-33.903 21.95,-45.602 h 47.39 c 0.62,22.582 -13.07,86.609 -55.04,113.93 0,0 43.03,-8.957 68.73,-48.61 16.17,-24.949 43.87,-15.339 32.9,19.723 -9.14,29.238 -55.69,103.738 -152.67,126.408 -19.3,4.51 -40.55,7.01 -63.96,6.65 -59.35,-0.92 -101.33,-14.92 -130.43,-34.88" /><path
         id="path62"
         style="fill:#598ed2;fill-opacity:1;fill-rule:nonzero;stroke:none"
         d="m 1548.06,912.801 c 1.31,-19.84 -0.34,-38.852 -30.05,-41.969 -43.91,-4.633 -43.91,80.879 -69.33,69.316 -25.42,-11.546 -70.7,-90.007 -84.56,-120.046 -13.87,-30.043 -41.6,-20.801 -55.46,4.617 -16.6,30.433 19.13,95 -1.67,95 -49.72,0 -47.25,-99.207 -80.67,-104.629 0.25,-10.711 1.15,-20.449 2.46,-28.731 0.28,-1.769 1.16,-3.429 2.3,-5.05 h 299.32 c 20.52,23.55 32.35,80.101 17.66,131.492" /><path
         id="path64"
         style="fill:#f9b26d;fill-opacity:1;fill-rule:nonzero;stroke:none"
         d="m 1306.99,919.719 c 20.8,0 -14.93,-64.567 1.67,-95 13.86,-25.418 41.59,-34.66 55.46,-4.617 13.86,30.039 59.14,108.5 84.56,120.046 25.42,11.563 25.42,-73.949 69.33,-69.316 29.71,3.117 31.36,22.129 30.05,41.969 -0.62,9.469 -1.92,19.129 -1.17,27.347 1.49,16.34 1.17,40.961 -9.01,62.322 -5.67,11.87 -14.34,22.74 -27.55,30.59 -75.92,45.07 -142.87,24.12 -200.91,-21.24 -10.47,-8.19 -20.69,-17.07 -30.58,-26.609 -64.71,-62.391 -81.36,-165.109 -60.08,-169.84 2.71,-0.609 5.22,-0.66 7.56,-0.281 33.42,5.422 30.95,104.629 80.67,104.629" /><path
         id="path66"
         style="fill:#f9b26d;fill-opacity:1;fill-rule:nonzero;stroke:none"
         d="m 2671.78,2691.35 c 119.81,41.65 216.78,130.31 287.8,244.01 32.76,52.43 59.97,110.14 81.34,171.1 25.88,73.83 43.17,152.28 51.31,231.65 -127.16,0.87 -170.44,313.51 -170.44,313.51 -65.21,31.01 -124.8,130.93 -124.8,130.93 -168.25,-106.51 -713.02,-130.31 -713.02,-130.31 0,0 -54.75,-302.02 -149.1,-313.62 8.35,-79.14 25.84,-157.37 51.88,-231.02 21.04,-59.5 47.6,-115.96 79.47,-167.42 70.25,-113.42 166.08,-202.36 284.09,-245.77 50.94,-18.73 105.92,-29.16 164.87,-29.16 55.8,0 108.05,9.23 156.6,26.1" /><path
         id="path68"
         style="fill:#4359b0;fill-opacity:1;fill-rule:nonzero;stroke:none"
         d="m 4548.75,781.309 h -704.39 c -6.24,-3.797 -13.49,-6.098 -21.34,-6.098 H 2870.8 c -7.84,0 -15.09,2.301 -21.34,6.098 h -80.16 c -4.41,-1.321 -8.99,-2.239 -13.82,-2.239 h -484.13 c -4.84,0 -9.41,0.918 -13.82,2.239 H 1826.23 1530.4 1231.08 980.324 656.992 459.824 c -42.445,0 -76.855,-34.411 -76.855,-76.848 v -5.742 c 0,-42.438 34.41,-76.848 76.855,-76.848 H 4548.75 c 42.44,0 76.85,34.41 76.85,76.848 v 5.742 c 0,42.437 -34.41,76.848 -76.85,76.848" /><path
         id="path70"
         style="fill:#7b4d4b;fill-opacity:1;fill-rule:nonzero;stroke:none"
         d="m 1934.87,3338.62 c 94.35,11.6 149.1,313.62 149.1,313.62 0,0 544.77,23.8 713.02,130.31 0,0 59.59,-99.92 124.8,-130.93 0,0 43.28,-312.64 170.44,-313.51 0.18,0 0.35,-0.04 0.52,-0.04 19.27,0 35.45,9.61 48.86,26.45 75.37,94.65 62.69,419.34 12.45,570.28 -67.66,203.29 -200.4,161.29 -200.4,161.29 0,0 -471.84,320.43 -896.67,62.02 -360.47,-219.27 -310.87,-689.69 -182.45,-797.59 17.05,-14.32 35.48,-22.34 54.53,-22.45 1.96,-0.01 3.88,0.31 5.8,0.55" /><path
         id="path72"
         style="fill:#a6e2f3;fill-opacity:1;fill-rule:nonzero;stroke:none"
         d="m 1023.31,1081.7 c 33.83,0 61.25,-27.42 61.25,-61.25 V 956 c 0,-33.828 -27.42,-61.25 -61.25,-61.25 h -16.32 v 186.95 z m -16.32,-273.72 v 31.641 h 51.05 c 42.71,0 77.33,34.621 77.33,77.32 v 142.569 c 0,42.7 -34.62,77.32 -77.33,77.32 h -51.05 v 67.89 c 0,14.73 -11.935,26.67 -26.666,26.67 H 656.992 c -14.726,0 -26.668,-11.94 -26.668,-26.67 V 807.98 c 0,-14.718 11.942,-26.671 26.668,-26.671 h 323.332 c 14.731,0 26.666,11.953 26.666,26.671" /><path
         id="path74"
         style="fill:#ee2935;fill-opacity:1;fill-rule:nonzero;stroke:none"
         d="m 2384.25,2315.56 c 29.97,2.47 130.85,96.69 133.2,98.89 0.02,0.02 0.11,0.1 0.11,0.1 -45.02,17.37 -185.63,146.33 -191.59,151.8 -0.13,0.12 -0.28,0.26 -0.28,0.26 0,0 -73.27,-44.8 -73.54,-52.4 -0.01,-0.17 0.1,-0.54 0.19,-0.89 4.12,-15.37 102.27,-200.21 131.91,-197.76" /><path
         id="path76"
         style="fill:#ee2935;fill-opacity:1;fill-rule:nonzero;stroke:none"
         d="m 2517.56,2414.55 c 0,0 0.07,-0.07 0.1,-0.1 2.19,-2.05 103.21,-96.42 133.2,-98.89 28.75,-2.38 121.97,171.5 131.29,195.93 0.5,1.33 0.82,2.33 0.81,2.72 -0.27,7.38 -69.16,49.72 -73.16,52.17 -0.12,0.07 -0.38,0.23 -0.38,0.23 0,0 -145.88,-134.32 -191.86,-152.06" /><path
         id="path78"
         style="fill:#598ed2;fill-opacity:1;fill-rule:nonzero;stroke:none"
         d="m 3582.4,860.789 h -711.6 c -22.78,0 -41.25,-18.469 -41.25,-41.25 v -3.078 c 0,-14.941 8.02,-27.91 19.91,-35.152 6.25,-3.797 13.5,-6.098 21.34,-6.098 h 952.22 c 7.85,0 15.1,2.301 21.34,6.098 11.89,7.242 19.91,20.211 19.91,35.152 v 3.078 c 0,22.781 -18.46,41.25 -41.25,41.25 h -138.49 -47.39 -54.74" /><path
         id="path80"
         style="fill:#598ed2;fill-opacity:1;fill-rule:nonzero;stroke:none"
         d="m 2531.61,1988.23 c 62.39,-7.87 112.78,-58.25 120.64,-120.64 11.54,-91.57 -65.47,-168.58 -157.03,-157.03 -62.4,7.86 -112.78,58.24 -120.64,120.63 -11.54,91.57 65.46,168.58 157.03,157.04 z m -932.36,-895.69 c 20.13,-20.28 48.02,-32.85 78.85,-32.85 h 172.4 570.4 l 20.87,412.35 h 143.29 l 20.87,-412.35 h 656.12 86.68 c 9.58,0 18.82,1.34 27.69,3.62 47.94,12.32 83.42,55.7 83.42,107.49 v 403.31 600.86 c 0,61.37 -49.75,111.12 -111.11,111.12 H 3179.28 1903.93 1678.1 c -61.36,0 -111.11,-49.75 -111.11,-111.12 V 1616.66 1170.8 c 0,-30.53 12.33,-58.17 32.26,-78.26" /><path
         id="path82"
         style="fill:#a6e2f3;fill-opacity:1;fill-rule:nonzero;stroke:none"
         d="m 2614.67,886.879 -8.74,172.811 -20.87,412.35 h -143.29 l -20.87,-412.35 -8.74,-172.811 h 202.51" /><path
         id="path84"
         style="fill:#598ed2;fill-opacity:1;fill-rule:nonzero;stroke:none"
         d="m 2803.88,827.469 v 11.011 c 0,26.731 -21.67,48.399 -48.4,48.399 h -140.81 -202.51 -140.81 c -26.73,0 -48.41,-21.668 -48.41,-48.399 v -11.011 c 0,-21.887 14.64,-40.18 34.59,-46.16 4.41,-1.321 8.98,-2.239 13.82,-2.239 h 484.13 c 4.83,0 9.41,0.918 13.82,2.239 19.95,5.98 34.58,24.273 34.58,46.16" /><path
         id="path86"
         style="fill:#a6e2f3;fill-opacity:1;fill-rule:nonzero;stroke:none"
         d="m 2495.22,1710.56 c 91.56,-11.55 168.57,65.46 157.03,157.03 -7.86,62.39 -58.25,112.77 -120.64,120.64 -91.57,11.54 -168.57,-65.47 -157.03,-157.04 7.86,-62.39 58.24,-112.77 120.64,-120.63" /><path
         id="path88"
         style="fill:#f68f45;fill-opacity:1;fill-rule:nonzero;stroke:none"
         d="m 2921.79,3651.62 c -65.21,31.01 -124.8,130.93 -124.8,130.93 -168.25,-106.51 -713.02,-130.31 -713.02,-130.31 0,0 -54.75,-302.02 -149.1,-313.62 3.21,-30.37 7.78,-60.6 13.65,-90.49 16.69,8.23 32.63,18.27 47.31,29.19 90.95,67.66 153.95,171.8 171.65,283.76 201.63,-18.84 408.26,19.07 590.06,108.27 23.46,-40 66.46,-67.91 112.54,-73.04 13.55,-73.99 28.74,-151.6 77.05,-209.26 34.64,-41.33 92.22,-67.01 143.69,-61 0.46,4.02 1,8.04 1.41,12.06 -127.16,0.87 -170.44,313.51 -170.44,313.51" /><path
         id="path90"
         style="fill:#663f3c;fill-opacity:1;fill-rule:nonzero;stroke:none"
         d="m 2921.79,3651.62 c 0,0 43.28,-312.64 170.44,-313.51 0.18,0 0.35,-0.04 0.52,-0.04 19.27,0 35.45,9.61 48.86,26.45 12.23,15.36 22.11,36.86 29.92,62.62 -16.61,15.55 -32.05,32.35 -45.92,50.41 -63.04,82.07 -94.69,187.67 -87.18,290.89 -97.92,20.45 -184.92,87.83 -229.22,177.52 -238.23,-147.27 -529.85,-205.98 -806.51,-162.36 -0.28,-108.08 -44.85,-215.38 -121.22,-291.86 -18.86,-18.89 -40.1,-36.1 -64.15,-47.34 15.68,-36.48 35.29,-65.47 57.21,-83.88 17.05,-14.32 35.48,-22.34 54.53,-22.45 1.96,-0.01 3.88,0.31 5.8,0.55 94.35,11.6 149.1,313.62 149.1,313.62 0,0 544.77,23.8 713.02,130.31 0,0 59.59,-99.92 124.8,-130.93" /><path
         id="path92"
         style="fill:#945e5b;fill-opacity:1;fill-rule:nonzero;stroke:none"
         d="m 2889.13,4084.66 c -33.32,45.46 -90.07,60.94 -140.89,79.06 -78.82,28.11 -154.59,44.53 -237.88,53.52 -142.16,15.35 -332.95,-14.83 -436.77,-122.45 -13.72,-14.21 3.49,-33.83 20.11,-26.07 64.63,30.16 122.3,66.03 191.9,85.49 67.48,18.85 138.27,22.26 207.88,18.5 74.05,-4.01 148.49,-16.94 218.62,-41.09 55.37,-19.06 109.13,-33.17 159.12,-64.86 10.61,-6.73 25.81,7.12 17.91,17.9" /><path
         id="path94"
         style="fill:#945e5b;fill-opacity:1;fill-rule:nonzero;stroke:none"
         d="m 3097.21,3976.96 c -36.17,45.08 -89.36,83.91 -149.38,82.27 -14.81,-0.41 -19.4,-24.43 -3.64,-26.86 102.37,-15.77 132.6,-138.84 162.17,-220.23 7.69,-21.19 35.22,-21.13 42.94,0 20.37,55.76 -18.22,122.62 -52.09,164.82" /><path
         id="path96"
         style="fill:#945e5b;fill-opacity:1;fill-rule:nonzero;stroke:none"
         d="m 3027.13,3919.95 c -17.47,32.27 -45.68,61.33 -77.4,79.91 -15.43,9.04 -28.09,-13.69 -13.81,-23.61 28.3,-19.63 44.45,-50.35 69.74,-72.86 11.56,-10.29 29.03,2.61 21.47,16.56" /><path
         id="path98"
         style="fill:#945e5b;fill-opacity:1;fill-rule:nonzero;stroke:none"
         d="m 2796.98,4063.13 c -98.26,34.35 -210.84,66.94 -315.18,42.73 -14.84,-3.44 -11.27,-26.03 3.53,-26.09 107.23,-0.39 201.33,-11.8 303.34,-46.78 19.14,-6.56 27.18,23.53 8.31,30.14" /><path
         id="path100"
         style="fill:#f68f45;fill-opacity:1;fill-rule:nonzero;stroke:none"
         d="m 2675.8,2677.06 c -1.35,4.73 -2.69,9.48 -4.02,14.29 -48.55,-16.87 -100.8,-26.1 -156.6,-26.1 -58.95,0 -113.93,10.43 -164.87,29.16 -5.93,-41.47 -13.96,-88.75 -23.7,-125.56 123.76,-1.35 248.16,36.74 349.19,108.21" /><path
         id="path102"
         style="fill:#4d7dba;fill-opacity:1;fill-rule:nonzero;stroke:none"
         d="m 3459.84,1170.8 v 285.52 C 3200.57,1303.39 2898.71,1222.99 2597.6,1224.24 l 8.33,-164.55 h 656.12 86.68 c 9.58,0 18.82,1.34 27.69,3.62 47.94,12.32 83.42,55.7 83.42,107.49" /><path
         id="path104"
         style="fill:#4d7dba;fill-opacity:1;fill-rule:nonzero;stroke:none"
         d="m 2429.69,1233.36 c -80.92,8.65 -161.18,23.37 -239.94,44.4 -149.91,40.03 -300.88,106.47 -394.88,229.92 -73.01,95.87 -104.58,217.24 -118.32,336.96 -17.27,150.54 -4.66,313.86 71.75,441.45 h -70.2 c -61.36,0 -111.11,-49.75 -111.11,-111.12 V 1616.66 1170.8 c 0,-30.53 12.33,-58.17 32.26,-78.26 20.13,-20.28 48.02,-32.85 78.85,-32.85 h 172.4 570.4 l 8.79,173.67" /><path
         id="path106"
         style="fill:#4d7dba;fill-opacity:1;fill-rule:nonzero;stroke:none"
         d="m 2263.01,886.039 c -22.74,-3.957 -40.07,-23.687 -40.07,-47.559 v -11.011 c 0,-21.887 14.64,-40.18 34.59,-46.16 4.41,-1.321 8.98,-2.239 13.82,-2.239 h 110.39 c -49.44,22.59 -94,59.961 -118.73,106.969" /><path
         id="path108"
         style="fill:#4d7dba;fill-opacity:1;fill-rule:nonzero;stroke:none"
         d="m 3324.03,780.762 c -106.85,11.23 -213.52,35.597 -310.95,80.027 H 2870.8 c -22.78,0 -41.25,-18.469 -41.25,-41.25 v -3.078 c 0,-14.941 8.02,-27.91 19.91,-35.152 6.25,-3.797 13.5,-6.098 21.34,-6.098 h 524.5 c -23.78,1.371 -47.55,3.059 -71.27,5.551" /><path
         id="path110"
         style="fill:#4d7dba;fill-opacity:1;fill-rule:nonzero;stroke:none"
         d="m 3736.82,775.211 c 0.29,1.18 0.67,2.32 0.94,3.508 -27.63,-1.239 -55.29,-2.43 -82.95,-3.508 h 82.01" /><path
         id="path112"
         style="fill:#f68f45;fill-opacity:1;fill-rule:nonzero;stroke:none"
         d="m 1510.33,1033.06 c -75.92,45.07 -142.87,24.12 -200.91,-21.24 -6.87,-5.37 -13.59,-11.15 -20.22,-17.121 52.74,21.621 113.35,24.391 167.3,5.701 34.26,-11.88 65.24,-32.279 90.53,-58.252 1.29,16.313 0.64,39.793 -9.15,60.322 -5.67,11.87 -14.34,22.74 -27.55,30.59" /><path
         id="path114"
         style="fill:#f68f45;fill-opacity:1;fill-rule:nonzero;stroke:none"
         d="m 3578.45,1072.24 c -19.3,4.51 -40.55,7.01 -63.96,6.65 -59.35,-0.92 -101.33,-14.92 -130.43,-34.88 -74.57,-51.158 -64.56,-141.541 -45.4,-151.791 1.07,-0.571 2.11,-0.809 3.16,-1.137 -0.27,77.406 68.15,143.358 143.6,163.688 41.15,11.1 83.64,11.71 126.12,7.07 -10.32,4.1 -21.31,7.65 -33.09,10.4" /><path
         id="path116"
         style="fill:#97cfe0;fill-opacity:1;fill-rule:nonzero;stroke:none"
         d="m 2508.15,1472.04 h -66.38 l -20.87,-412.35 -8.74,-172.811 h 96.65 c -44.03,191.741 -44.89,393.471 -0.66,585.161" /><path
         id="path118"
         style="fill:#ef3b46;fill-opacity:1;fill-rule:nonzero;stroke:none"
         d="m 1566.99,1170.8 v 60.66 c -38.7,-57.55 -75.19,-116.58 -109.22,-177.01 17.02,-3.82 34.53,-10.69 52.56,-21.39 13.21,-7.85 21.88,-18.72 27.55,-30.59 12.92,17.63 27.5,46.18 33.32,52.81 8.65,9.86 18.05,22.45 28.05,37.26 -19.93,20.09 -32.26,47.73 -32.26,78.26" /><path
         id="path120"
         style="fill:#ef3b46;fill-opacity:1;fill-rule:nonzero;stroke:none"
         d="m 3384.06,1044.01 c 21.05,14.44 48.97,25.67 85.2,31.18 -3.77,25.11 -7.55,50.22 -11.32,75.34 -7.87,-42.56 -40,-76.55 -81.52,-87.22 2.35,-6.08 4.93,-12.74 7.64,-19.3" /><path
         id="path122"
         style="fill:#71b36a;fill-opacity:1;fill-rule:nonzero;stroke:none"
         d="m 4150.86,1230.63 c -29.14,11.52 -52.33,34.08 -67.46,61.34 -5.09,-71.25 -2.92,-135.98 12.81,-178.91 h 138.84 c 13.32,30.73 18.39,72.69 18.01,120.17 -32.54,-13.26 -69.4,-15.57 -102.2,-2.6" /><path
         id="path124"
         style="fill:#639d60;fill-opacity:1;fill-rule:nonzero;stroke:none"
         d="m 4328.82,1113.06 c 11.39,27.28 21.39,58.03 30.17,90.53 -20.48,10.47 -38.96,24.82 -53.67,42.53 -30.37,36.54 -44.02,86.1 -38,133.14 -7.51,-13.02 -14.96,-26.17 -22.24,-39.45 11.53,-89.53 12.67,-174.37 -10.03,-226.75 h 93.77" /><path
         id="path126"
         style="fill:#639d60;fill-opacity:1;fill-rule:nonzero;stroke:none"
         d="m 4084.79,1309.7 c -12.79,20.25 -26.24,40.44 -39.89,60.27 -1.22,-67.77 -32.15,-134.21 -80.8,-181.73 10.31,-26.98 21.39,-52.46 33.31,-75.18 h 98.8 c -17.02,46.46 -18.19,118.46 -11.42,196.64" /><path
         id="path128"
         style="fill:#b4e290;fill-opacity:1;fill-rule:nonzero;stroke:none"
         d="m 4164.08,1618.86 c -4.55,8.87 -16.42,2.26 -15,-6.32 1.31,-7.88 1.12,-15.59 3.15,-23.38 2.18,-8.43 13.63,-7.59 16.19,0 3.58,10.55 0.58,20.1 -4.34,29.7" /><path
         id="path130"
         style="fill:#b4e290;fill-opacity:1;fill-rule:nonzero;stroke:none"
         d="m 4190.68,1534.72 c -0.9,13.34 -19.81,13.34 -20.71,0 -0.67,-10.03 -3.49,-21.64 3.86,-29.82 3.23,-3.58 9.77,-3.58 12.99,0 7.36,8.18 4.53,19.79 3.86,29.82" /><path
         id="path132"
         style="fill:#b4e290;fill-opacity:1;fill-rule:nonzero;stroke:none"
         d="m 4143.45,1480.76 c -1.61,9.73 -17.97,9.73 -19.58,0 -0.95,-5.67 -2.7,-11.48 -0.98,-17.1 3.25,-10.66 18.29,-10.66 21.54,0 1.72,5.62 -0.04,11.43 -0.98,17.1" /><path
         id="path134"
         style="fill:#b4e290;fill-opacity:1;fill-rule:nonzero;stroke:none"
         d="m 4196.95,1428.06 c -1.67,12.8 -18.24,12.8 -19.92,0 -0.91,-6.99 -2.14,-14.34 3.61,-19.69 3.68,-3.43 9.02,-3.43 12.71,0 5.75,5.35 4.52,12.7 3.6,19.69" /><path
         id="path136"
         style="fill:#b4e290;fill-opacity:1;fill-rule:nonzero;stroke:none"
         d="m 4118.1,1361.12 c -2.44,12.79 -23.37,9.84 -22.63,-3.06 0.47,-8.19 1.92,-17.53 10.03,-21.6 5.91,-2.97 11.74,-0.25 14.06,5.72 2.42,6.26 -0.26,12.7 -1.46,18.94" /><path
         id="path138"
         style="fill:#b4e290;fill-opacity:1;fill-rule:nonzero;stroke:none"
         d="m 4157.16,1300.86 c -1.45,10.11 -18.89,10.11 -20.34,0 -0.84,-5.91 -1.87,-11.37 -1.06,-17.33 1.53,-11.17 20.94,-11.17 22.46,0 0.82,5.96 -0.21,11.42 -1.06,17.33" /><path
         id="path140"
         style="fill:#b4e290;fill-opacity:1;fill-rule:nonzero;stroke:none"
         d="m 4215.52,1337.99 c -1.84,11.8 -21.89,11.8 -23.73,0 -0.57,-3.71 -1.58,-7.53 -1.12,-11.27 0.85,-7.03 5.26,-12.99 12.99,-12.99 7.73,0 12.14,5.96 12.99,12.99 0.46,3.74 -0.55,7.56 -1.13,11.27" /><path
         id="path142"
         style="fill:#89d378;fill-opacity:1;fill-rule:nonzero;stroke:none"
         d="m 3930.22,1485.79 c -1.6,3.73 -3.02,7.54 -4.38,11.37 -1.37,3.89 -4.54,6.74 -8.85,6.74 -4.62,0 -9.68,-4.19 -9.18,-9.18 0.52,-5.19 1.21,-10.37 2.04,-15.53 0.91,-5.67 4.44,-9.38 8.15,-13.46 5,-5.52 13.26,-0.87 13.67,5.66 0.33,5.25 0.7,9.42 -1.45,14.4" /><path
         id="path144"
         style="fill:#89d378;fill-opacity:1;fill-rule:nonzero;stroke:none"
         d="m 3944.9,1403.57 c -2.61,8.82 -8.93,12.83 -17.91,13.27 -10.3,0.52 -11.43,-14.28 -2.33,-17.26 2.11,-0.69 4.77,-2.62 6.53,-3.99 5.98,-4.66 16.28,-0.67 13.71,7.98" /><path
         id="path146"
         style="fill:#89d378;fill-opacity:1;fill-rule:nonzero;stroke:none"
         d="m 3988.08,1422.59 c -5.2,8.43 -19.8,3.01 -16.42,-6.92 2.42,-7.12 3.05,-18.7 10.8,-22.04 4.51,-1.94 9.58,-1.37 12.29,3.22 5.13,8.71 -2.08,18.32 -6.67,25.74" /><path
         id="path148"
         style="fill:#89d378;fill-opacity:1;fill-rule:nonzero;stroke:none"
         d="m 3985.93,1329.95 c -6.25,9.56 -22.4,3.66 -18.92,-7.98 0.67,-2.23 1.11,-4.46 1.55,-6.75 0.55,-2.95 3.33,-5.33 4.85,-7.87 2.86,-4.79 11.2,-5.63 13.83,0 1.55,3.31 3.42,7.11 3.42,10.87 0,4.21 -2.5,8.31 -4.73,11.73" /><path
         id="path150"
         style="fill:#89d378;fill-opacity:1;fill-rule:nonzero;stroke:none"
         d="m 4383.76,1494.82 c -4.38,3.57 -9.15,3.56 -13.53,0 -3.57,-2.89 -3.56,-7.2 -5.57,-10.62 -2.21,-3.74 -4.75,-7.88 -6.44,-11.02 -4.32,-8.06 2.71,-16.84 11.47,-14.92 7.55,1.66 14.75,7.43 16.88,15.19 1.8,6.55 3.11,16.55 -2.81,21.37" /><path
         id="path152"
         style="fill:#89d378;fill-opacity:1;fill-rule:nonzero;stroke:none"
         d="m 4312.26,1413.08 c -7.09,10.63 -24.35,0.67 -17.2,-10.05 3.12,-4.68 6.18,-9.08 11.42,-11.55 4.9,-2.32 11.74,0.36 11.46,6.58 -0.26,5.8 -2.52,10.28 -5.68,15.02" /><path
         id="path154"
         style="fill:#89d378;fill-opacity:1;fill-rule:nonzero;stroke:none"
         d="m 4353.1,1365.33 c -0.51,3.75 -1.79,7.57 -2.66,11.26 -1.59,6.73 -11.97,6.73 -13.56,0 l -2.66,-11.26 c -1.08,-4.57 0.04,-8.49 1.15,-12.89 2.07,-8.22 14.51,-8.22 16.58,0 1.15,4.58 1.79,8.14 1.15,12.89" /><path
         id="path156"
         style="fill:#89d378;fill-opacity:1;fill-rule:nonzero;stroke:none"
         d="m 4301.76,1310.29 c 0.2,-1.25 0.1,-0.48 -0.3,2.3 -0.06,0.22 -1.57,5.99 -1.17,2.13 -0.56,5.4 -4.11,9.96 -9.96,9.96 -5.34,0 -10.09,-4.53 -9.97,-9.96 0.2,-8.36 4.57,-14.57 13.3,-15.06 5.79,-0.33 9.11,5.57 8.1,10.63" /><path
         id="path158"
         style="fill:#89d378;fill-opacity:1;fill-rule:nonzero;stroke:none"
         d="m 4320.33,1281.53 c -8.03,0 -16.3,-8.76 -13,-17.06 0.2,-0.5 0.4,-1 0.6,-1.5 4.85,-12.18 19.94,-12.18 24.79,0 0.2,0.5 0.4,1 0.6,1.5 3.31,8.3 -4.97,17.06 -12.99,17.06" /><path
         id="path160"
         style="fill:#f47815;fill-opacity:1;fill-rule:nonzero;stroke:none"
         d="m 4132.39,881.949 c -44.46,68.289 -68.33,149.661 -68.66,231.111 h -66.32 -30.16 l 47.46,-331.751 h 209.77 c -35.8,28.382 -67.16,62.351 -92.09,100.64" /><path
         id="path162"
         style="fill:#fcfab1;fill-opacity:1;fill-rule:nonzero;stroke:none"
         d="m 3996.99,986.051 c -2.11,-0.192 -3.82,-0.852 -5.32,-1.711 -1.99,-0.07 -3.98,-0.16 -5.97,-0.231 l 2.7,-18.879 c 1.09,-0.039 2.18,-0.089 3.27,-0.128 1.5,-0.86 3.21,-1.52 5.32,-1.711 109.61,-9.86 221.62,-9 333,-6.743 l 5.15,36.043 c -113.07,2.34 -226.85,3.368 -338.15,-6.64" /><path
         id="path164"
         style="fill:#fcfab1;fill-opacity:1;fill-rule:nonzero;stroke:none"
         d="m 4009.86,1081.45 c -12.5,0.04 -25.29,0.39 -38.19,0.76 l 8.72,-60.97 c 3.29,0.04 6.62,0.1 9.89,0.1 58.73,-0.11 117.46,0.29 176.19,0.47 57.5,0.17 115.13,-0.35 172.76,-0.54 l 8.61,60.14 c -53.97,-0.19 -107.94,-0.66 -161.79,-0.5 -58.73,0.18 -117.46,0.36 -176.19,0.54" /><path
         id="path166"
         style="fill:#7b4d4b;fill-opacity:1;fill-rule:nonzero;stroke:none"
         d="m 2408.44,3379.5 c -46.36,57.44 -152.03,37.45 -196.97,-12.59 -4.72,-5.25 -1.35,-12.82 5.52,-13.33 26.45,-1.97 52.7,10.15 79.17,12.94 33.66,3.55 60.19,-17.06 91.94,-21.95 21.18,-3.26 33.96,18.05 20.34,34.93" /><path
         id="path168"
         style="fill:#663f3c;fill-opacity:1;fill-rule:nonzero;stroke:none"
         d="m 2346.64,3212.41 c 3.23,19.96 6.24,41.05 4.16,60.81 -2.21,21.07 -19,38.82 -45.47,38.82 -26.47,0 -43.26,-17.75 -45.48,-38.82 -2.08,-19.76 0.94,-40.85 4.16,-60.81 0.08,-2.48 0.47,-4.92 1.18,-7.31 0.07,-0.43 0.13,-0.87 0.2,-1.3 1.61,-9.87 9.94,-17.29 20.29,-21.58 2.72,-1.29 5.58,-2.39 8.64,-3.11 3.45,-0.81 7.2,-1 11.01,-0.93 3.8,-0.07 7.55,0.12 11.01,0.93 3.05,0.72 5.91,1.82 8.63,3.11 10.35,4.29 18.68,11.71 20.29,21.58 0.07,0.43 0.14,0.88 0.21,1.31 0.7,2.39 1.09,4.82 1.17,7.3" /><path
         id="path170"
         style="fill:#7b4d4b;fill-opacity:1;fill-rule:nonzero;stroke:none"
         d="m 2634.9,3379.5 c 46.36,57.44 152.03,37.45 196.97,-12.59 4.72,-5.25 1.35,-12.82 -5.52,-13.33 -26.45,-1.97 -52.7,10.15 -79.17,12.94 -33.66,3.55 -60.19,-17.06 -91.94,-21.95 -21.18,-3.26 -33.96,18.05 -20.34,34.93" /><path
         id="path172"
         style="fill:#663f3c;fill-opacity:1;fill-rule:nonzero;stroke:none"
         d="m 2696.7,3212.41 c -3.22,19.96 -6.24,41.05 -4.16,60.81 2.21,21.07 19.01,38.82 45.47,38.82 26.47,0 43.27,-17.75 45.48,-38.82 2.08,-19.76 -0.94,-40.85 -4.16,-60.81 -0.08,-2.48 -0.47,-4.92 -1.17,-7.31 -0.07,-0.43 -0.14,-0.87 -0.21,-1.3 -1.61,-9.87 -9.94,-17.29 -20.29,-21.58 -2.72,-1.29 -5.58,-2.39 -8.64,-3.11 -3.45,-0.81 -7.2,-1 -11.01,-0.93 -3.8,-0.07 -7.55,0.12 -11,0.93 -3.06,0.72 -5.92,1.82 -8.64,3.11 -10.35,4.29 -18.68,11.71 -20.29,21.58 -0.07,0.43 -0.14,0.88 -0.21,1.31 -0.7,2.39 -1.09,4.82 -1.17,7.3" /><path
         id="path174"
         style="fill:#ffffff;fill-opacity:1;fill-rule:nonzero;stroke:none"
         d="m 2293.66,3293.28 c -10.11,0 -18.56,-8.44 -18.56,-18.56 0,-10.11 8.45,-18.55 18.56,-18.55 10.11,0 18.55,8.44 18.55,18.55 0,10.12 -8.44,18.56 -18.55,18.56" /><path
         id="path176"
         style="fill:#ffffff;fill-opacity:1;fill-rule:nonzero;stroke:none"
         d="m 2723.66,3293.28 c -10.11,0 -18.56,-8.44 -18.56,-18.56 0,-10.11 8.45,-18.55 18.56,-18.55 10.11,0 18.55,8.44 18.55,18.55 0,10.12 -8.44,18.56 -18.55,18.56" /><path
         id="path178"
         style="fill:#f68f45;fill-opacity:1;fill-rule:nonzero;stroke:none"
         d="m 2563.66,3063.7 c -11.54,0.27 -22.43,-6.25 -33.52,-8.97 -13.98,-3.42 -24.55,1.2 -37.68,4.38 -5.69,1.38 -11.78,-3.83 -9.86,-9.85 11.57,-36.2 80.5,-36.29 92.92,-1.14 2.75,7.77 -4.34,15.39 -11.86,15.58" /><path
         id="path180"
         style="fill:#f68f45;fill-opacity:1;fill-rule:nonzero;stroke:none"
         d="m 2580.33,2911.73 c -15.23,1.7 -28.88,-6.08 -43.03,-10.84 -20.44,-6.87 -38.25,-6.51 -58.13,1.74 -7.93,3.3 -13.37,-8.31 -7.98,-13.71 29.33,-29.32 87.54,-26.16 118.8,-0.53 10.33,8.47 0.71,22.18 -9.66,23.34" /><path
         id="path182"
         style="fill:#f68f45;fill-opacity:1;fill-rule:nonzero;stroke:none"
         d="m 2539.02,2845.4 c -5.25,1.29 -9.97,1.64 -15.36,1.64 -11.59,0 -11.59,-17.97 0,-17.97 5.39,0 10.11,0.35 15.36,1.64 7.28,1.79 7.28,12.9 0,14.69" /><path
         id="path184"
         style="fill:#f68f45;fill-opacity:1;fill-rule:nonzero;stroke:none"
         d="m 3078.36,3101.22 c 4.18,0 8.31,0.26 12.4,0.62 -7.47,88.39 17.18,179.52 68.78,251.67 -5.69,4.09 -11.65,7.8 -17.93,11.01 -13.41,-16.84 -29.59,-26.45 -48.86,-26.45 -0.17,0 -0.34,0.04 -0.52,0.04 -8.14,-79.37 -25.43,-157.82 -51.31,-231.65 11.93,-3.33 24.45,-5.24 37.44,-5.24" /><path
         id="path186"
         style="fill:#f68f45;fill-opacity:1;fill-rule:nonzero;stroke:none"
         d="m 1948.93,3101.37 c 13.14,0.37 25.84,2.47 37.82,6.23 -26.04,73.65 -43.53,151.88 -51.88,231.02 -1.92,-0.24 -3.84,-0.56 -5.8,-0.55 -16.57,0.09 -32.66,6.18 -47.79,17.18 46.66,-73.6 62.86,-163.73 67.65,-253.88" /><path
         id="path188"
         style="fill:#709fda;fill-opacity:1;fill-rule:nonzero;stroke:none"
         d="m 3095.33,2237 c -184.35,-2.47 -368.92,3.17 -553.22,-1.25 -27.99,0.77 -41.66,-20.96 -41.18,-42.69 -0.48,-21.74 13.19,-43.47 41.18,-42.7 184.3,-4.42 368.87,1.22 553.22,-1.25 56.68,-0.76 56.68,88.65 0,87.89" /><path
         id="path190"
         style="fill:#709fda;fill-opacity:1;fill-rule:nonzero;stroke:none"
         d="m 3373.47,2174.99 c 0.09,0.27 0.17,0.55 0.26,0.82 0.45,1.56 0.87,3.11 1.15,4.76 0.47,2.48 0.75,4.98 0.75,7.49 0,2.5 -0.28,5 -0.75,7.48 -0.28,1.65 -0.7,3.2 -1.16,4.76 -0.08,0.28 -0.16,0.55 -0.25,0.82 -1.47,4.69 -3.61,8.99 -6.48,12.74 -8.09,11.42 -21.06,19.37 -35.48,18.31 -22.52,1.66 -44.91,0.96 -67.46,0.16 -25.63,-0.92 -49.19,-2.69 -63.41,-26.93 -6.21,-10.59 -6.21,-24.1 0,-34.69 14.22,-24.24 37.78,-26.01 63.41,-26.93 22.55,-0.8 44.94,-1.5 67.46,0.16 14.42,-1.06 27.39,6.89 35.48,18.31 2.87,3.75 5.01,8.05 6.48,12.74" /><path
         id="path192"
         style="fill:#97cfe0;fill-opacity:1;fill-rule:nonzero;stroke:none"
         d="m 1006.99,1081.7 h 16.32 c 33.83,0 61.25,-27.42 61.25,-61.25 V 956 c 0,-33.828 -27.42,-61.25 -61.25,-61.25 h -16.32 z M 980.324,781.309 c 14.731,0 26.666,11.953 26.666,26.671 v 31.641 h 51.05 c 42.71,0 77.33,34.621 77.33,77.32 v 142.569 c 0,42.7 -34.62,77.32 -77.33,77.32 h -51.05 v 67.89 c 0,14.73 -11.935,26.67 -26.666,26.67 H 945.141 C 958.703,1126.16 915.68,1014.31 832.848,947.469 776.23,901.781 702.965,878.719 630.324,879.961 V 807.98 c 0,-14.718 11.942,-26.671 26.668,-26.671 h 323.332" /><path
         id="path194"
         style="fill:#f15359;fill-opacity:1;fill-rule:nonzero;stroke:none"
         d="m 4140.33,2558.06 c 0,-187.78 -152.23,-340 -340,-340 -187.78,0 -340,152.22 -340,340 0,187.77 152.22,340 340,340 187.77,0 340,-152.23 340,-340" /><path
         id="path196"
         style="fill:#ef393f;fill-opacity:1;fill-rule:nonzero;stroke:none"
         d="m 3864.88,2314.89 c -187.77,0 -340,152.22 -340,340 0,48.81 10.37,95.18 28.89,137.14 -57.87,-60.96 -93.44,-143.29 -93.44,-233.97 0,-187.78 152.22,-340 340,-340 138.96,0 258.37,83.4 311.11,202.85 -61.96,-65.26 -149.47,-106.02 -246.56,-106.02" /><g
         transform="scale(10)"
         id="g198"><text
           id="text202"
           style="font-variant:normal;font-weight:normal;font-size:44.35649872px;font-family:BebasNeueBold;-inkscape-font-specification:BebasNeueBold;writing-mode:lr-tb;fill:#ffffff;fill-opacity:1;fill-rule:nonzero;stroke:none"
           transform="matrix(1,0,0,-1,354.294,240.475)"><tspan
             id="tspan200"
             y="0"
             x="0 17.121609 33.710941">css</tspan></text>
</g><path
         id="path204"
         style="fill:#bb7fc6;fill-opacity:1;fill-rule:nonzero;stroke:none"
         d="m 4686.99,3411.39 c 0,-187.78 -152.22,-340 -340,-340 -187.77,0 -340,152.22 -340,340 0,187.78 152.23,340 340,340 187.78,0 340,-152.22 340,-340" /><path
         id="path206"
         style="fill:#9a6ca7;fill-opacity:1;fill-rule:nonzero;stroke:none"
         d="m 4411.55,3168.22 c -187.78,0 -340,152.23 -340,340 0,48.82 10.36,95.19 28.89,137.15 -57.87,-60.96 -93.45,-143.29 -93.45,-233.98 0,-187.78 152.23,-340 340,-340 138.96,0 258.38,83.41 311.11,202.85 -61.95,-65.26 -149.46,-106.02 -246.55,-106.02" /><g
         transform="scale(10)"
         id="g208"><text
           id="text212"
           style="font-variant:normal;font-weight:normal;font-size:44.35649872px;font-family:BebasNeueBold;-inkscape-font-specification:BebasNeueBold;writing-mode:lr-tb;fill:#ffffff;fill-opacity:1;fill-rule:nonzero;stroke:none"
           transform="matrix(1,0,0,-1,409.961,322.808)"><tspan
             id="tspan210"
             y="0"
             x="0 16.722401 35.661892">php</tspan></text>
</g><path
         id="path214"
         style="fill:#87d8f7;fill-opacity:1;fill-rule:nonzero;stroke:none"
         d="m 4110.33,4328.05 c 0,-187.77 -152.23,-339.99 -340,-339.99 -187.78,0 -340,152.22 -340,339.99 0,187.78 152.22,340 340,340 187.77,0 340,-152.22 340,-340" /><path
         id="path216"
         style="fill:#74bddd;fill-opacity:1;fill-rule:nonzero;stroke:none"
         d="m 3834.88,4084.89 c -187.77,0 -340,152.22 -340,340 0,48.82 10.37,95.18 28.89,137.15 -57.87,-60.97 -93.44,-143.29 -93.44,-233.99 0,-187.77 152.22,-339.99 340,-339.99 138.96,0 258.37,83.4 311.11,202.85 -61.96,-65.26 -149.47,-106.02 -246.56,-106.02" /><g
         transform="scale(10)"
         id="g218"><text
           id="text222"
           style="font-variant:normal;font-weight:normal;font-size:33.83300018px;font-family:BebasNeueBold;-inkscape-font-specification:BebasNeueBold;writing-mode:lr-tb;fill:#ffffff;fill-opacity:1;fill-rule:nonzero;stroke:none"
           transform="matrix(1,0,0,-1,348.793,420.646)"><tspan
             id="tspan220"
             y="0"
             x="0 14.446691 26.49124 44.792965">html</tspan></text>
</g><path
         id="path224"
         style="fill:#bb7fc6;fill-opacity:1;fill-rule:nonzero;stroke:none"
         d="m 1486.99,2558.06 c 0,-187.78 -152.22,-340 -340,-340 -187.775,0 -339.998,152.22 -339.998,340 0,187.77 152.223,340 339.998,340 187.78,0 340,-152.23 340,-340" /><path
         id="path226"
         style="fill:#9a6ca7;fill-opacity:1;fill-rule:nonzero;stroke:none"
         d="m 1211.55,2314.89 c -187.78,0 -339.999,152.22 -339.999,340 0,48.81 10.363,95.18 28.887,137.14 -57.872,-60.96 -93.446,-143.29 -93.446,-233.97 0,-187.78 152.223,-340 339.998,-340 138.96,0 258.38,83.4 311.11,202.85 -61.95,-65.26 -149.46,-106.02 -246.55,-106.02" /><g
         transform="scale(10)"
         id="g228"><text
           id="text232"
           style="font-variant:normal;font-weight:normal;font-size:44.35649872px;font-family:BebasNeueBold;-inkscape-font-specification:BebasNeueBold;writing-mode:lr-tb;fill:#ffffff;fill-opacity:1;fill-rule:nonzero;stroke:none"
           transform="matrix(1,0,0,-1,98.7938,242.475)"><tspan
             id="tspan230"
             y="0"
             x="0 11.355264">js</tspan></text>
</g><path
         id="path234"
         style="fill:#87d8f7;fill-opacity:1;fill-rule:nonzero;stroke:none"
         d="m 1103.66,3411.39 c 0,-187.78 -152.222,-340 -340,-340 -187.777,0 -340,152.22 -340,340 0,187.78 152.223,340 340,340 187.778,0 340,-152.22 340,-340" /><path
         id="path236"
         style="fill:#74bddd;fill-opacity:1;fill-rule:nonzero;stroke:none"
         d="m 828.215,3168.22 c -187.774,0 -340,152.23 -340,340 0,48.82 10.367,95.19 28.89,137.15 -57.871,-60.96 -93.445,-143.29 -93.445,-233.98 0,-187.78 152.223,-340 340,-340 138.961,0 258.38,83.41 311.11,202.85 -61.95,-65.26 -149.465,-106.02 -246.555,-106.02" /><g
         transform="scale(10)"
         id="g238"><text
           id="text242"
           style="font-variant:normal;font-weight:normal;font-size:44.35649872px;font-family:BebasNeueBold;-inkscape-font-specification:BebasNeueBold;writing-mode:lr-tb;fill:#ffffff;fill-opacity:1;fill-rule:nonzero;stroke:none"
           transform="matrix(1,0,0,-1,48.9609,325.475)"><tspan
             id="tspan240"
             y="0"
             x="0 17.565174 34.465">&lt;/&gt;</tspan></text>
</g><path
         id="path244"
         style="fill:#f15359;fill-opacity:1;fill-rule:nonzero;stroke:none"
         d="m 1646.99,4328.05 c 0,-187.77 -152.22,-339.99 -340,-339.99 -187.77,0 -339.998,152.22 -339.998,339.99 0,187.78 152.228,340 339.998,340 187.78,0 340,-152.22 340,-340" /><path
         id="path246"
         style="fill:#ef393f;fill-opacity:1;fill-rule:nonzero;stroke:none"
         d="m 1371.55,4084.89 c -187.78,0 -340,152.22 -340,340 0,48.82 10.36,95.18 28.89,137.15 -57.87,-60.97 -93.448,-143.29 -93.448,-233.99 0,-187.77 152.228,-339.99 339.998,-339.99 138.96,0 258.38,83.4 311.11,202.85 -61.95,-65.26 -149.46,-106.02 -246.55,-106.02" /><g
         transform="scale(10)"
         id="g248"><text
           id="text252"
           style="font-variant:normal;font-weight:normal;font-size:33.83300018px;font-family:BebasNeueBold;-inkscape-font-specification:BebasNeueBold;writing-mode:lr-tb;fill:#ffffff;fill-opacity:1;fill-rule:nonzero;stroke:none"
           transform="matrix(1,0,0,-1,110.46,421.396)"><tspan
             id="tspan250"
             y="0"
             x="0 13.059538 26.457405">c++</tspan></text>
</g><path
         id="path254"
         style="fill:#1c1b19;fill-opacity:1;fill-rule:nonzero;stroke:none"
         d="m 2601.04,345.352 c -4.32,-4.43 -8.03,-9.313 -11.08,-14.532 l -4.65,2.41 c -0.67,2.969 -3.5,5.02 -6.59,4.661 -3.31,-0.391 -5.68,-3.391 -5.29,-6.7 0.39,-3.312 3.39,-5.679 6.7,-5.293 0.65,0.082 1.27,0.262 1.83,0.524 l 4.52,-2.34 c -2.51,-5.543 -4.33,-11.383 -5.4,-17.441 l 7.47,-1.309 c 2.3,13.059 8.5,25.059 17.92,34.719 l -5.43,5.301" /><path
         id="path256"
         style="fill:#1c1b19;fill-opacity:1;fill-rule:nonzero;stroke:none"
         d="m 2655.92,368.371 c -1.71,0 -3.41,-0.062 -5.1,-0.172 l -0.73,6.262 c 1.87,1.488 2.95,3.891 2.65,6.437 -0.46,3.934 -4.02,6.754 -7.95,6.282 -3.93,-0.461 -6.74,-4.02 -6.28,-7.95 0.3,-2.539 1.89,-4.609 4.05,-5.64 l 0.73,-6.238 c -7.14,-1.161 -14.03,-3.321 -20.6,-6.461 l 3.28,-6.84 c 9.34,4.469 19.41,6.738 29.95,6.738 4.96,0 9.93,-0.527 14.75,-1.578 l 1.61,7.41 c -5.35,1.16 -10.86,1.75 -16.36,1.75" /><path
         id="path258"
         style="fill:#1c1b19;fill-opacity:1;fill-rule:nonzero;stroke:none"
         d="m 2721.94,342.891 c 3.31,0.41 5.66,3.418 5.26,6.73 -0.41,3.309 -3.42,5.66 -6.72,5.25 -3.1,-0.379 -5.36,-3.031 -5.3,-6.082 l -4.16,-3.637 c -4.18,4.309 -8.9,8.129 -14.08,11.399 l -4.04,-6.422 c 11.34,-7.137 20.2,-17.258 25.63,-29.25 l 6.91,3.133 c -2.51,5.539 -5.68,10.718 -9.42,15.449 l 4.02,3.508 c 0.61,-0.117 1.25,-0.16 1.9,-0.078" /><path
         id="path260"
         style="fill:#1c1b19;fill-opacity:1;fill-rule:nonzero;stroke:none"
         d="m 2650.44,266.281 c -3.85,-0.23 -7.75,-0.34 -11.57,-0.34 -8.8,0 -17.33,0.598 -24.78,1.789 -3.91,0.622 -8.46,1.551 -12.7,2.918 10.46,-18.609 30.69,-31.25 53.88,-31.25 28.55,0 52.62,19.161 59.5,45.032 -6.82,-4.489 -15.06,-8.25 -24.59,-11.219 -11.79,-3.68 -25.54,-6.07 -39.74,-6.93" /><path
         id="path262"
         style="fill:#1c1b19;fill-opacity:1;fill-rule:nonzero;stroke:none"
         d="m 2681.7,297.141 c -7.5,0 -13.6,6.101 -13.6,13.601 0,7.5 6.1,13.61 13.6,13.61 7.5,0 13.6,-6.11 13.6,-13.61 0,-7.5 -6.1,-13.601 -13.6,-13.601 z m -47.37,-9.082 c -10.2,0 -18.5,8.293 -18.5,18.492 0,10.199 8.3,18.5 18.5,18.5 10.19,0 18.49,-8.301 18.49,-18.5 0,-10.199 -8.3,-18.492 -18.49,-18.492 z m 21.59,65.152 c -33.52,0 -60.8,-26.672 -60.8,-59.441 0,-4.25 0.46,-8.489 1.37,-12.61 6.74,-4.828 27.06,-8.898 53.48,-7.308 28.79,1.73 52.97,9.57 66.72,21.578 -0.05,1.949 -0.21,3.902 -0.45,5.82 -3.8,29.621 -29.73,51.961 -60.32,51.961" /><path
         id="path264"
         style="fill:#1c1b19;fill-opacity:1;fill-rule:nonzero;stroke:none"
         d="m 2815.95,334.531 c -2.94,1.16 -8.05,3.09 -13.82,2.379 -5.51,-0.691 -8.44,-3.41 -8.44,-10.07 v -8.66 h 22.28 v -17.168 h -22.28 v -54.551 h -19.32 v 54.551 h -13.39 v 17.168 h 13.39 v 8.879 c 0,16.8 8.96,27.832 25.69,27.832 6.42,0 11.57,-1.211 15.9,-3.082 l -0.01,-17.278" /><path
         id="path266"
         style="fill:#1c1b19;fill-opacity:1;fill-rule:nonzero;stroke:none"
         d="m 2862.98,301.211 c -1.77,0.301 -3.58,0.469 -5.26,0.469 -8.96,0 -15.1,-5.481 -15.1,-16.141 v -39.078 h -19.32 v 71.719 h 18.73 v -7.84 c 4.51,6.73 11.4,9.762 20.2,9.762 4.15,0 8.48,-1.27 10.95,-3.36 l -10.2,-15.531" /><path
         id="path268"
         style="fill:#1c1b19;fill-opacity:1;fill-rule:nonzero;stroke:none"
         d="m 2888.51,289.09 h 31.75 c -1.78,9.18 -7.33,14.359 -15.62,14.359 -9.1,0 -14.43,-5.48 -16.13,-14.359 z m 51.14,-6.66 c 0,-2.219 -0.15,-4.879 -0.37,-6.508 h -50.85 c 2.08,-10.363 9.33,-14.883 18.43,-14.883 6.22,0 12.96,2.52 18.14,6.883 l 11.32,-12.43 c -8.14,-7.472 -18.5,-10.883 -30.57,-10.883 -21.98,0 -37.22,14.95 -37.22,37.532 0,22.57 14.8,37.961 36.26,37.961 20.65,0 34.79,-15.321 34.86,-37.672" /><path
         id="path270"
         style="fill:#1c1b19;fill-opacity:1;fill-rule:nonzero;stroke:none"
         d="m 2965.04,289.09 h 31.75 c -1.77,9.18 -7.33,14.359 -15.61,14.359 -9.11,0 -14.44,-5.48 -16.14,-14.359 z m 51.14,-6.66 c 0,-2.219 -0.14,-4.879 -0.36,-6.508 h -50.85 c 2.07,-10.363 9.32,-14.883 18.43,-14.883 6.21,0 12.95,2.52 18.13,6.883 l 11.32,-12.43 c -8.14,-7.472 -18.5,-10.883 -30.56,-10.883 -21.99,0 -37.23,14.95 -37.23,37.532 0,22.57 14.8,37.961 36.26,37.961 20.65,0 34.79,-15.321 34.86,-37.672" /><path
         id="path272"
         style="fill:#1c1b19;fill-opacity:1;fill-rule:nonzero;stroke:none"
         d="m 3042.87,282.359 c 0,-11.328 7.48,-19.757 18.43,-19.757 11.4,0 18.5,8.8 18.5,19.757 0,10.95 -7.1,19.762 -18.5,19.762 -10.95,0 -18.43,-8.441 -18.43,-19.762 z m 56.77,0 c 0,-21.539 -14.95,-37.75 -34.71,-37.75 -9.62,0 -16.43,3.782 -21.09,9.332 v -37.082 h -19.25 V 318.18 h 18.87 v -7.918 c 4.67,5.847 11.55,9.84 21.4,9.84 19.83,0 34.78,-16.2 34.78,-37.743" /><path
         id="path274"
         style="fill:#1c1b19;fill-opacity:1;fill-rule:nonzero;stroke:none"
         d="m 3128.09,246.461 h -19.32 v 71.719 h 19.32 z m 2.59,95.18 c 0,-6.95 -5.41,-12.282 -12.36,-12.282 -6.96,0 -12.29,5.332 -12.29,12.282 0,6.961 5.33,12.441 12.29,12.441 6.95,0 12.36,-5.48 12.36,-12.441" /><path
         id="path276"
         style="fill:#1c1b19;fill-opacity:1;fill-rule:nonzero;stroke:none"
         d="m 3160.32,292.652 27.02,25.528 h 23.68 l -34.78,-33.75 35,-37.969 h -23.75 l -27.17,29.008 v -29.008 h -19.31 v 106.578 h 19.31 v -60.387" /><path
         id="path278"
         style="fill:#1c1b19;fill-opacity:1;fill-rule:nonzero;stroke:none"
         d="m 1844.12,266.301 v 32.078 c -3.95,6.152 -12.44,11.422 -21.24,11.422 -14.2,0 -22.7,-11.711 -22.7,-27.391 0,-15.668 8.5,-27.238 22.7,-27.238 8.8,0 17.29,4.98 21.24,11.129 z m 0,-19.192 v 10.551 c -5.27,-7.18 -13.91,-12.308 -23.87,-12.308 -18.46,0 -31.49,14.058 -31.49,37.058 0,22.559 12.89,37.211 31.49,37.211 9.52,0 18.16,-4.691 23.87,-12.449 v 37.637 h 10.99 v -97.7 h -10.99" /><path
         id="path280"
         style="fill:#1c1b19;fill-opacity:1;fill-rule:nonzero;stroke:none"
         d="m 1904.03,310.531 c -15.08,0 -22.55,-12.742 -23.14,-23.582 h 46.43 c -0.14,10.551 -7.17,23.582 -23.29,23.582 z m -34.71,-27.972 c 0,20.5 14.65,37.062 34.86,37.062 21.39,0 33.98,-16.699 33.98,-37.941 v -2.789 h -57.27 c 0.88,-13.321 10.26,-24.461 25.49,-24.461 8.05,0 16.26,3.23 21.82,8.941 l 5.27,-7.18 c -7.03,-7.031 -16.54,-10.839 -28.12,-10.839 -20.95,0 -36.03,15.089 -36.03,37.207" /><path
         id="path282"
         style="fill:#1c1b19;fill-opacity:1;fill-rule:nonzero;stroke:none"
         d="m 1946.07,256.488 5.71,7.903 c 4.69,-5.422 13.63,-10.102 23.29,-10.102 10.84,0 16.7,5.121 16.7,12.16 0,17.133 -43.79,6.59 -43.79,32.813 0,10.976 9.51,20.359 26.36,20.359 12.01,0 20.51,-4.539 26.22,-10.262 l -5.13,-7.617 c -4.24,5.129 -12.01,8.938 -21.09,8.938 -9.67,0 -15.67,-4.828 -15.67,-11.129 0,-15.531 43.79,-5.27 43.79,-32.809 0,-11.871 -9.52,-21.39 -27.83,-21.39 -11.57,0 -21.38,3.519 -28.56,11.136" /><path
         id="path284"
         style="fill:#1c1b19;fill-opacity:1;fill-rule:nonzero;stroke:none"
         d="m 2016.67,247.109 v 70.75 h 10.99 v -70.75 z m -1.9,88.18 c 0,4.102 3.37,7.473 7.32,7.473 4.1,0 7.47,-3.371 7.47,-7.473 0,-4.098 -3.37,-7.32 -7.47,-7.32 -3.95,0 -7.32,3.222 -7.32,7.32" /><path
         id="path286"
         style="fill:#1c1b19;fill-opacity:1;fill-rule:nonzero;stroke:none"
         d="m 2097.09,267.469 v 30.91 c -3.81,6.152 -12.31,11.422 -21.1,11.422 -14.21,0 -22.7,-11.281 -22.7,-26.949 0,-15.532 8.49,-26.954 22.7,-26.954 8.79,0 17.29,5.422 21.1,11.571 z m -51.27,-38.52 5.56,8.199 c 5.86,-7.027 12.9,-9.668 23,-9.668 11.72,0 22.71,5.711 22.71,21.239 v 10.113 c -5.13,-7.184 -13.77,-12.602 -23.74,-12.602 -18.45,0 -31.49,13.77 -31.49,36.622 0,22.707 12.89,36.769 31.49,36.769 9.53,0 18.02,-4.691 23.74,-12.449 v 10.687 h 10.98 V 249.16 c 0,-23.441 -16.4,-30.762 -33.69,-30.762 -12.01,0 -20.21,2.352 -28.56,10.551" /><path
         id="path288"
         style="fill:#1c1b19;fill-opacity:1;fill-rule:nonzero;stroke:none"
         d="m 2174.13,247.109 v 46.289 c 0,12.454 -6.3,16.403 -15.82,16.403 -8.64,0 -16.84,-5.27 -20.94,-10.981 v -51.711 h -10.99 v 70.75 h 10.99 v -10.257 c 4.98,5.859 14.64,12.019 25.19,12.019 14.8,0 22.56,-7.473 22.56,-22.851 v -49.661 h -10.99" /><path
         id="path290"
         style="fill:#1c1b19;fill-opacity:1;fill-rule:nonzero;stroke:none"
         d="m 2234.04,310.531 c -15.09,0 -22.56,-12.742 -23.14,-23.582 h 46.43 c -0.15,10.551 -7.18,23.582 -23.29,23.582 z m -34.71,-27.972 c 0,20.5 14.64,37.062 34.86,37.062 21.38,0 33.98,-16.699 33.98,-37.941 v -2.789 h -57.27 c 0.88,-13.321 10.25,-24.461 25.49,-24.461 8.05,0 16.25,3.23 21.82,8.941 l 5.27,-7.18 c -7.03,-7.031 -16.55,-10.839 -28.12,-10.839 -20.95,0 -36.03,15.089 -36.03,37.207" /><path
         id="path292"
         style="fill:#1c1b19;fill-opacity:1;fill-rule:nonzero;stroke:none"
         d="m 2333.5,266.301 v 32.078 c -3.96,6.152 -12.45,11.422 -21.24,11.422 -14.21,0 -22.7,-11.711 -22.7,-27.391 0,-15.668 8.49,-27.238 22.7,-27.238 8.79,0 17.28,4.98 21.24,11.129 z m 0,-19.192 v 10.551 c -5.27,-7.18 -13.91,-12.308 -23.88,-12.308 -18.45,0 -31.49,14.058 -31.49,37.058 0,22.559 12.89,37.211 31.49,37.211 9.52,0 18.17,-4.691 23.88,-12.449 v 37.637 h 10.99 v -97.7 h -10.99" /><path
         id="path294"
         style="fill:#1c1b19;fill-opacity:1;fill-rule:nonzero;stroke:none"
         d="m 2429,255.172 c 14.36,0 22.85,11.57 22.85,27.238 0,15.68 -8.49,27.391 -22.85,27.391 -8.64,0 -17.28,-5.27 -21.09,-11.422 v -32.078 c 3.81,-6.149 12.45,-11.129 21.09,-11.129 z m -32.08,-8.063 v 97.7 h 10.99 v -37.637 c 5.71,7.758 14.2,12.449 23.87,12.449 18.46,0 31.5,-14.652 31.5,-37.211 0,-23 -13.04,-37.058 -31.5,-37.058 -9.96,0 -18.6,5.128 -23.87,12.308 v -10.551 h -10.99" /><path
         id="path296"
         style="fill:#1c1b19;fill-opacity:1;fill-rule:nonzero;stroke:none"
         d="m 2475.29,229.391 c 1.61,-0.743 4.25,-1.18 6,-1.18 4.83,0 8.06,1.621 10.55,7.469 l 4.69,10.699 -29.59,71.48 h 11.86 l 23.59,-58.007 23.43,58.007 h 12.01 l -35.44,-85.109 c -4.25,-10.25 -11.43,-14.199 -20.81,-14.352 -2.34,0 -6,0.442 -8.05,1.032 l 1.76,9.961" /></g></g></svg>