<svg width="388" height="327" viewBox="0 0 388 327" fill="none" xmlns="http://www.w3.org/2000/svg">
<path d="M194 326.56C301.082 326.56 387.89 321.492 387.89 315.24C387.89 308.988 301.082 303.92 194 303.92C86.9175 303.92 0.110001 308.988 0.110001 315.24C0.110001 321.492 86.9175 326.56 194 326.56Z" fill="#F5F5F5"/>
<path d="M189.46 41.81C190.82 58.81 210.46 80.89 216.74 87.57C216.987 87.8347 217.286 88.0457 217.618 88.19C217.95 88.3342 218.308 88.4087 218.67 88.4087C219.032 88.4087 219.39 88.3342 219.722 88.19C220.054 88.0457 220.353 87.8347 220.6 87.57C226.9 80.89 246.52 58.8 247.88 41.81C247.927 41.2884 247.82 40.7645 247.573 40.3026C247.326 39.8408 246.95 39.461 246.49 39.21L219.93 24.88C219.544 24.6682 219.11 24.5571 218.67 24.5571C218.23 24.5571 217.796 24.6682 217.41 24.88L190.85 39.21C190.392 39.463 190.017 39.8431 189.77 40.3044C189.524 40.7658 189.416 41.2887 189.46 41.81V41.81Z" fill="#91E460"/>
<path opacity="0.3" d="M216.7 81.13C208.7 72.13 197.1 57 194.33 44.96C194.204 44.4004 194.261 43.8152 194.491 43.2899C194.721 42.7646 195.113 42.3267 195.61 42.04L217.35 29.54C217.754 29.3093 218.21 29.188 218.675 29.188C219.14 29.188 219.596 29.3093 220 29.54L241.74 42C242.25 42.2926 242.65 42.7448 242.877 43.2869C243.105 43.829 243.148 44.431 243 45C240.24 57.06 228.68 72.13 220.64 81.17C220.39 81.4465 220.085 81.6669 219.744 81.8165C219.403 81.966 219.033 82.0414 218.661 82.0377C218.288 82.0339 217.921 81.951 217.583 81.7945C217.245 81.638 216.944 81.4115 216.7 81.13V81.13Z" fill="#91E460"/>
<path opacity="0.3" d="M216.7 81.13C208.7 72.13 197.1 57 194.33 44.96C194.204 44.4004 194.261 43.8152 194.491 43.2899C194.721 42.7646 195.113 42.3267 195.61 42.04L217.35 29.54C217.754 29.3093 218.21 29.188 218.675 29.188C219.14 29.188 219.596 29.3093 220 29.54L241.74 42C242.25 42.2926 242.65 42.7448 242.877 43.2869C243.105 43.829 243.148 44.431 243 45C240.24 57.06 228.68 72.13 220.64 81.17C220.39 81.4465 220.085 81.6669 219.744 81.8165C219.403 81.966 219.033 82.0414 218.661 82.0377C218.288 82.0339 217.921 81.951 217.583 81.7945C217.245 81.638 216.944 81.4115 216.7 81.13V81.13Z" fill="white"/>
<path d="M215.71 62.88C215.513 62.8804 215.318 62.8417 215.136 62.7662C214.954 62.6906 214.789 62.5798 214.65 62.44L207.24 55C206.975 54.7157 206.831 54.3396 206.838 53.951C206.844 53.5624 207.002 53.1916 207.277 52.9168C207.552 52.6419 207.922 52.4845 208.311 52.4776C208.7 52.4708 209.076 52.615 209.36 52.88L215.71 59.22L230.71 44.27C230.993 43.9915 231.373 43.8354 231.77 43.8354C232.167 43.8354 232.547 43.9915 232.83 44.27C232.97 44.4086 233.082 44.5736 233.158 44.7556C233.234 44.9376 233.273 45.1328 233.273 45.33C233.273 45.5272 233.234 45.7224 233.158 45.9044C233.082 46.0864 232.97 46.2514 232.83 46.39L216.83 62.39C216.687 62.5443 216.514 62.6674 216.321 62.7517C216.128 62.836 215.92 62.8797 215.71 62.88Z" fill="white"/>
<path d="M278.67 103.33H140C133.373 103.33 128 108.703 128 115.33V297.23C128 303.857 133.373 309.23 140 309.23H278.67C285.297 309.23 290.67 303.857 290.67 297.23V115.33C290.67 108.703 285.297 103.33 278.67 103.33Z" fill="#263238"/>
<path d="M288.01 103.33H149.34C142.713 103.33 137.34 108.703 137.34 115.33V297.23C137.34 303.857 142.713 309.23 149.34 309.23H288.01C294.637 309.23 300.01 303.857 300.01 297.23V115.33C300.01 108.703 294.637 103.33 288.01 103.33Z" fill="#91E460"/>
<path d="M165.76 309.24H152.26C151.846 309.24 151.51 309.576 151.51 309.99V312.16C151.51 312.574 151.846 312.91 152.26 312.91H165.76C166.174 312.91 166.51 312.574 166.51 312.16V309.99C166.51 309.576 166.174 309.24 165.76 309.24Z" fill="#263238"/>
<path d="M285.08 309.24H271.58C271.166 309.24 270.83 309.576 270.83 309.99V312.16C270.83 312.574 271.166 312.91 271.58 312.91H285.08C285.494 312.91 285.83 312.574 285.83 312.16V309.99C285.83 309.576 285.494 309.24 285.08 309.24Z" fill="#263238"/>
<path opacity="0.2" d="M288.01 103.33H149.34C142.713 103.33 137.34 108.703 137.34 115.33V297.23C137.34 303.857 142.713 309.23 149.34 309.23H288.01C294.637 309.23 300.01 303.857 300.01 297.23V115.33C300.01 108.703 294.637 103.33 288.01 103.33Z" fill="black"/>
<g style="mix-blend-mode:color-dodge" opacity="0.4">
<path d="M271.67 285.49H165.67C164.456 285.487 163.293 285.004 162.434 284.146C161.576 283.287 161.093 282.124 161.09 280.91V131.67C161.09 130.454 161.572 129.288 162.431 128.428C163.289 127.567 164.454 127.083 165.67 127.08H271.67C272.886 127.083 274.051 127.567 274.909 128.428C275.768 129.288 276.25 130.454 276.25 131.67V280.91C276.247 282.124 275.764 283.287 274.906 284.146C274.047 285.004 272.884 285.487 271.67 285.49V285.49ZM165.67 127.58C164.587 127.583 163.549 128.015 162.784 128.781C162.02 129.548 161.59 130.587 161.59 131.67V280.91C161.59 281.446 161.696 281.976 161.901 282.471C162.106 282.966 162.406 283.416 162.785 283.795C163.164 284.174 163.614 284.474 164.109 284.679C164.604 284.884 165.134 284.99 165.67 284.99H271.67C272.752 284.99 273.79 284.56 274.555 283.795C275.32 283.03 275.75 281.992 275.75 280.91V131.67C275.75 130.587 275.32 129.548 274.556 128.781C273.791 128.015 272.753 127.583 271.67 127.58H165.67Z" fill="#E6E6E6"/>
</g>
<path d="M274.01 280.91V131.66C274.01 130.373 272.967 129.33 271.68 129.33H165.67C164.383 129.33 163.34 130.373 163.34 131.66V280.91C163.34 282.197 164.383 283.24 165.67 283.24H271.68C272.967 283.24 274.01 282.197 274.01 280.91Z" fill="#91E460"/>
<path opacity="0.1" d="M274.01 280.91V131.66C274.01 130.373 272.967 129.33 271.68 129.33H165.67C164.383 129.33 163.34 130.373 163.34 131.66V280.91C163.34 282.197 164.383 283.24 165.67 283.24H271.68C272.967 283.24 274.01 282.197 274.01 280.91Z" fill="white"/>
<path d="M303.5 145.78H302.5V154.22H303.5V145.78Z" fill="#91E460"/>
<path d="M303.5 115.33H302.5V136.89H303.5V115.33Z" fill="#91E460"/>
<path opacity="0.1" d="M218.67 243.3C237.503 243.3 252.77 228.033 252.77 209.2C252.77 190.367 237.503 175.1 218.67 175.1C199.837 175.1 184.57 190.367 184.57 209.2C184.57 228.033 199.837 243.3 218.67 243.3Z" fill="black"/>
<path d="M218.67 158.56C223.271 158.56 227 154.831 227 150.23C227 145.629 223.271 141.9 218.67 141.9C214.069 141.9 210.34 145.629 210.34 150.23C210.34 154.831 214.069 158.56 218.67 158.56Z" fill="#91E460"/>
<path opacity="0.6" d="M218.62 158.54C223.221 158.54 226.95 154.811 226.95 150.21C226.95 145.609 223.221 141.88 218.62 141.88C214.019 141.88 210.29 145.609 210.29 150.21C210.29 154.811 214.019 158.54 218.62 158.54Z" fill="white"/>
<path d="M218.67 156.81C217.369 156.81 216.096 156.424 215.014 155.701C213.932 154.978 213.089 153.95 212.591 152.748C212.093 151.546 211.963 150.223 212.216 148.946C212.47 147.67 213.097 146.497 214.017 145.577C214.937 144.657 216.11 144.03 217.386 143.776C218.663 143.523 219.986 143.653 221.188 144.151C222.39 144.649 223.418 145.492 224.141 146.574C224.864 147.656 225.25 148.929 225.25 150.23C225.247 151.974 224.553 153.646 223.32 154.88C222.086 156.113 220.414 156.807 218.67 156.81V156.81ZM218.67 144.15C217.468 144.15 216.292 144.507 215.292 145.175C214.292 145.843 213.513 146.792 213.053 147.903C212.593 149.014 212.472 150.237 212.707 151.416C212.941 152.596 213.52 153.679 214.371 154.529C215.221 155.38 216.304 155.959 217.484 156.193C218.663 156.428 219.886 156.307 220.997 155.847C222.108 155.387 223.057 154.608 223.725 153.608C224.393 152.608 224.75 151.433 224.75 150.23C224.747 148.618 224.106 147.073 222.966 145.934C221.827 144.794 220.282 144.153 218.67 144.15V144.15Z" fill="#91E460"/>
<path d="M163.2 148.93H159.49C158.673 148.93 158.01 149.593 158.01 150.41V170.71C158.01 171.527 158.673 172.19 159.49 172.19H163.2C164.017 172.19 164.68 171.527 164.68 170.71V150.41C164.68 149.593 164.017 148.93 163.2 148.93Z" fill="#91E460"/>
<path opacity="0.6" d="M163.2 148.93H159.49C158.673 148.93 158.01 149.593 158.01 150.41V170.71C158.01 171.527 158.673 172.19 159.49 172.19H163.2C164.017 172.19 164.68 171.527 164.68 170.71V150.41C164.68 149.593 164.017 148.93 163.2 148.93Z" fill="white"/>
<path d="M163.2 240.38H159.49C158.673 240.38 158.01 241.043 158.01 241.86V262.16C158.01 262.977 158.673 263.64 159.49 263.64H163.2C164.017 263.64 164.68 262.977 164.68 262.16V241.86C164.68 241.043 164.017 240.38 163.2 240.38Z" fill="#91E460"/>
<path opacity="0.6" d="M163.2 240.38H159.49C158.673 240.38 158.01 241.043 158.01 241.86V262.16C158.01 262.977 158.673 263.64 159.49 263.64H163.2C164.017 263.64 164.68 262.977 164.68 262.16V241.86C164.68 241.043 164.017 240.38 163.2 240.38Z" fill="white"/>
<path d="M218.67 240.39C237.503 240.39 252.77 225.123 252.77 206.29C252.77 187.457 237.503 172.19 218.67 172.19C199.837 172.19 184.57 187.457 184.57 206.29C184.57 225.123 199.837 240.39 218.67 240.39Z" fill="#91E460"/>
<path opacity="0.6" d="M218.67 240.39C237.503 240.39 252.77 225.123 252.77 206.29C252.77 187.457 237.503 172.19 218.67 172.19C199.837 172.19 184.57 187.457 184.57 206.29C184.57 225.123 199.837 240.39 218.67 240.39Z" fill="white"/>
<path d="M201.799 187.993L200.385 189.407L235.557 224.579L236.971 223.164L201.799 187.993Z" fill="#91E460"/>
<path d="M235.557 187.993L200.385 223.164L201.799 224.579L236.971 189.407L235.557 187.993Z" fill="#91E460"/>
<path opacity="0.2" d="M235.441 187.879L200.269 223.05L201.684 224.465L236.855 189.293L235.441 187.879Z" fill="black"/>
<path opacity="0.2" d="M201.691 187.886L200.277 189.3L235.448 224.472L236.862 223.057L201.691 187.886Z" fill="black"/>
<path d="M218.57 232.06C213.449 232.062 208.442 230.545 204.184 227.702C199.925 224.858 196.605 220.815 194.644 216.085C192.683 211.354 192.168 206.148 193.166 201.125C194.164 196.102 196.629 191.488 200.249 187.867C203.87 184.245 208.483 181.778 213.505 180.778C218.528 179.778 223.734 180.291 228.465 182.25C233.197 184.209 237.241 187.527 240.086 191.785C242.931 196.043 244.45 201.049 244.45 206.17C244.445 213.033 241.717 219.614 236.865 224.468C232.013 229.322 225.433 232.052 218.57 232.06V232.06ZM218.57 182.28C213.845 182.278 209.225 183.677 205.295 186.301C201.365 188.925 198.301 192.656 196.491 197.021C194.682 201.386 194.207 206.19 195.128 210.825C196.048 215.459 198.323 219.717 201.664 223.059C205.004 226.401 209.261 228.678 213.896 229.6C218.53 230.523 223.334 230.05 227.7 228.242C232.066 226.435 235.798 223.373 238.423 219.444C241.049 215.515 242.45 210.895 242.45 206.17C242.445 199.837 239.927 193.765 235.45 189.287C230.974 184.808 224.903 182.288 218.57 182.28V182.28Z" fill="#91E460"/>
<path d="M226.22 213.83C230.45 209.6 230.45 202.743 226.22 198.514C221.991 194.284 215.134 194.284 210.904 198.514C206.675 202.743 206.675 209.6 210.904 213.83C215.134 218.059 221.991 218.059 226.22 213.83Z" fill="#91E460"/>
<path opacity="0.2" d="M218.57 232.06C213.449 232.062 208.442 230.545 204.184 227.702C199.925 224.858 196.605 220.815 194.644 216.085C192.683 211.354 192.168 206.148 193.166 201.125C194.164 196.102 196.629 191.488 200.249 187.867C203.87 184.245 208.483 181.778 213.505 180.778C218.528 179.778 223.734 180.291 228.465 182.25C233.197 184.209 237.241 187.527 240.086 191.785C242.931 196.043 244.45 201.049 244.45 206.17C244.445 213.033 241.717 219.614 236.865 224.468C232.013 229.322 225.433 232.052 218.57 232.06V232.06ZM218.57 182.28C213.845 182.278 209.225 183.677 205.295 186.301C201.365 188.925 198.301 192.656 196.491 197.021C194.682 201.386 194.207 206.19 195.128 210.825C196.048 215.459 198.323 219.717 201.664 223.059C205.004 226.401 209.261 228.678 213.896 229.6C218.53 230.523 223.334 230.05 227.7 228.242C232.066 226.435 235.798 223.373 238.423 219.444C241.049 215.515 242.45 210.895 242.45 206.17C242.445 199.837 239.927 193.765 235.45 189.287C230.974 184.808 224.903 182.288 218.57 182.28V182.28Z" fill="black"/>
<path opacity="0.2" d="M226.22 213.83C230.45 209.6 230.45 202.743 226.22 198.514C221.991 194.284 215.134 194.284 210.904 198.514C206.675 202.743 206.675 209.6 210.904 213.83C215.134 218.059 221.991 218.059 226.22 213.83Z" fill="black"/>
<path d="M135 61.76C137.41 67.35 139.9 73.01 142.42 78.58C144.94 84.15 147.52 89.71 150.28 95.02C150.99 96.32 151.67 97.67 152.41 98.9L152.95 99.84L153.23 100.31C153.202 100.272 153.168 100.238 153.13 100.21C153.01 100.14 153.13 100.28 153.37 100.45C154.288 100.944 155.281 101.282 156.31 101.45C157.633 101.697 158.968 101.87 160.31 101.97C163.14 102.16 166.13 102.16 169.13 102.07L173.67 101.88L178.19 101.58L179.36 107.02C173.184 109.083 166.774 110.366 160.28 110.84C158.528 110.953 156.77 110.936 155.02 110.79C152.955 110.65 150.928 110.171 149.02 109.37C147.698 108.792 146.51 107.948 145.53 106.89C145.236 106.576 144.966 106.242 144.72 105.89L144.37 105.37L143.69 104.37C142.74 102.99 141.94 101.61 141.08 100.22C137.84 94.67 134.94 89.05 132.22 83.38C129.5 77.71 126.97 71.99 124.59 66.12L135 61.76Z" fill="#D5A274"/>
<path d="M121.72 61C119.45 67.64 132.79 87.17 132.79 87.17L145.57 80.09C143.4 73.9974 140.838 68.0517 137.9 62.29C133.39 53.84 124.21 53.71 121.72 61Z" fill="#91E460"/>
<path opacity="0.5" d="M121.72 61C119.45 67.64 132.79 87.17 132.79 87.17L145.57 80.09C143.4 73.9974 140.838 68.0517 137.9 62.29C133.39 53.84 124.21 53.71 121.72 61Z" fill="white"/>
<path d="M121.53 61.83C124.39 60.46 127.69 61.61 131.15 67.09C134.61 72.57 137.57 81.72 137.9 84.33L132.79 87.16C132.79 87.16 120.47 69.12 121.53 61.83Z" fill="#91E460"/>
<path opacity="0.4" d="M121.53 61.83C124.39 60.46 127.69 61.61 131.15 67.09C134.61 72.57 137.57 81.72 137.9 84.33L132.79 87.16C132.79 87.16 120.47 69.12 121.53 61.83Z" fill="white"/>
<path d="M130.35 55.92C130.35 55.92 139.87 78.31 133 120H93.36C92.87 113.91 95.67 84.22 88.8 55.54C93.1584 54.6911 97.5679 54.1299 102 53.86C107.612 53.5398 113.238 53.5398 118.85 53.86C122.73 54.2523 126.575 54.941 130.35 55.92Z" fill="#91E460"/>
<path opacity="0.5" d="M130.35 55.92C130.35 55.92 139.87 78.31 133 120H93.36C92.87 113.91 95.67 84.22 88.8 55.54C93.1584 54.6911 97.5679 54.1299 102 53.86C107.612 53.5398 113.238 53.5398 118.85 53.86C122.73 54.2523 126.575 54.941 130.35 55.92Z" fill="white"/>
<path d="M97.66 62.62C98.48 67.34 97.39 78.62 93.34 91.68C93.023 80.4907 91.7213 69.351 89.45 58.39V58.33C92.05 58.07 96.87 58.19 97.66 62.62Z" fill="#91E460"/>
<path opacity="0.4" d="M97.66 62.62C98.48 67.34 97.39 78.62 93.34 91.68C93.023 80.4907 91.7213 69.351 89.45 58.39V58.33C92.05 58.07 96.87 58.19 97.66 62.62Z" fill="white"/>
<path d="M79.31 297.63L85.19 302.89L96.38 291.24L90.5 285.98L79.31 297.63Z" fill="#D5A274"/>
<path d="M86.81 300.78L79.67 296C79.5533 295.908 79.4089 295.857 79.26 295.857C79.1111 295.857 78.9667 295.908 78.85 296L73.39 301.51C73.2835 301.631 73.2049 301.774 73.1597 301.929C73.1146 302.084 73.1041 302.247 73.1289 302.406C73.1537 302.565 73.2132 302.717 73.3033 302.851C73.3934 302.985 73.5117 303.097 73.65 303.18C78.21 306.69 81.5 309.34 84.1 312.26C87.1 315.67 88.72 316.16 95.72 316.16C98.96 316.16 100.79 313.43 99.47 313.01C87.81 309.32 90.93 307.71 88.09 302.3C87.8021 301.691 87.3611 301.167 86.81 300.78V300.78Z" fill="#263238"/>
<path d="M96.37 291.24L90.61 297.25L84.73 291.98L90.49 285.98L96.37 291.24Z" fill="#5E2B2B"/>
<path d="M100.41 291.41H107.82L107.32 300.26H99.91L100.41 291.41Z" fill="#5E2B2B"/>
<path d="M133 120C133 120 140.81 174.06 143.47 203.48C145.61 227.09 94.56 297.48 94.56 297.48L84.69 288.19C84.69 288.19 121.97 225.08 119.1 198.8C116.33 173.35 106.9 119.97 106.9 119.97L133 120Z" fill="#91E460"/>
<path opacity="0.5" d="M133 120C133 120 140.81 174.06 143.47 203.48C145.61 227.09 94.56 297.48 94.56 297.48L84.69 288.19C84.69 288.19 121.97 225.08 119.1 198.8C116.33 173.35 106.9 119.97 106.9 119.97L133 120Z" fill="black"/>
<path d="M99.44 308.57H106.86L107.82 291.41H100.41L99.44 308.57Z" fill="#D5A274"/>
<path d="M107.25 307.72H98.92C98.7811 307.715 98.6455 307.764 98.5427 307.857C98.4398 307.951 98.3778 308.081 98.37 308.22L97.96 314.81C97.9587 314.982 97.9913 315.153 98.0559 315.312C98.1205 315.472 98.2159 315.617 98.3366 315.739C98.4573 315.862 98.601 315.959 98.7594 316.026C98.9179 316.094 99.088 316.129 99.26 316.13C102.16 316.08 103.55 315.91 107.26 315.91C109.51 315.91 119.09 316.15 122.21 316.15C125.33 316.15 125.21 313.07 123.91 312.79C118 311.54 110.67 309.79 108.57 308.17C108.194 307.873 107.729 307.714 107.25 307.72V307.72Z" fill="#263238"/>
<path d="M176.63 101.92L183.44 99.22L185.1 106.22C185.1 106.22 177.33 108.54 176.1 106.3L176.63 101.92Z" fill="#D5A274"/>
<path d="M189.21 100.63L191.21 104.46L185.1 106.2L183.44 99.22L189.21 100.63Z" fill="#D5A274"/>
<path d="M120.49 54L118.87 53.83C113.258 53.5098 107.632 53.5098 102.02 53.83L101.02 53.89L101.11 54.16C101.19 54.37 103.05 59.32 113.72 59.32C118.37 59.32 120.8 58.55 121.36 56.88C121.474 56.3656 121.454 55.8305 121.302 55.3261C121.15 54.8217 120.87 54.365 120.49 54V54Z" fill="#E6E6E6"/>
<path d="M103 34.88C104.25 40.3 105.66 50.24 102 53.88C102 53.88 103.58 58.37 113.66 58.37C124.74 58.37 118.85 53.88 118.85 53.88C112.75 52.44 112.76 47.95 113.66 43.74L103 34.88Z" fill="#D5A274"/>
<path d="M107.37 38.49L113.68 43.71C113.453 44.6958 113.312 45.6997 113.26 46.71C110.94 46.38 107.68 43.84 107.35 41.42C107.173 40.4507 107.18 39.4568 107.37 38.49Z" fill="#5E2B2B"/>
<path d="M118.84 18.75C122.21 20.93 122.69 31.41 117.76 32.91C112.83 34.41 112.46 14.63 118.84 18.75Z" fill="#263238"/>
<path d="M100.66 29.2C102.92 36.2 103.88 40.43 108.44 43.3C109.911 44.2455 111.613 44.7707 113.361 44.819C115.109 44.8672 116.837 44.4365 118.357 43.5736C119.878 42.7107 121.134 41.4483 121.99 39.9231C122.845 38.3978 123.267 36.6678 123.21 34.92C123.12 28.19 119.44 17.83 111.69 16.53C110.02 16.2076 108.294 16.3296 106.686 16.8839C105.077 17.4382 103.643 18.4053 102.526 19.6884C101.409 20.9714 100.649 22.5254 100.321 24.1947C99.9938 25.864 100.111 27.59 100.66 29.2V29.2Z" fill="#D5A274"/>
<path d="M92.58 22.61C95 27 101.08 37 104 36C106.92 35 106.93 27 103.18 21.93C103.18 21.93 132.89 24.93 133.49 8.05C134.1 -9.22 119.79 7.49 107.2 12.32C93.5 17.62 86.89 12.28 92.58 22.61Z" fill="#3A5B26"/>
<path d="M93.85 16.49C93.7935 16.4785 93.7427 16.4479 93.7062 16.4032C93.6697 16.3586 93.6497 16.3027 93.6497 16.245C93.6497 16.1873 93.6697 16.1314 93.7062 16.0868C93.7427 16.0421 93.7935 16.0115 93.85 16C94.3 15.9 94.79 15.81 95.32 15.71C99.304 15.0597 103.189 13.9037 106.88 12.27C110.63 10.59 114.56 7.70999 118.04 5.16999C120.251 3.48221 122.554 1.91976 124.94 0.48999C124.999 0.460571 125.067 0.454536 125.13 0.473091C125.193 0.491646 125.246 0.533413 125.28 0.589989C125.296 0.618861 125.306 0.650579 125.309 0.683319C125.313 0.716059 125.31 0.749184 125.301 0.780777C125.291 0.81237 125.276 0.841816 125.255 0.867424C125.235 0.893032 125.209 0.914293 125.18 0.929993C122.811 2.34997 120.524 3.90244 118.33 5.57999C114.84 8.12999 110.88 11.02 107.08 12.73C103.357 14.379 99.4387 15.5451 95.42 16.2C94.89 16.3 94.42 16.39 93.95 16.49H93.85Z" fill="#263238"/>
<path d="M99.42 37.75C100.761 39.0534 102.55 39.794 104.42 39.82C106.9 39.82 107.42 37.48 106.09 35.52C104.91 33.76 102.21 31.64 100.03 32.59C97.85 33.54 97.78 36.14 99.42 37.75Z" fill="#D5A274"/>
<path opacity="0.2" d="M119.11 198.83C117.68 185.72 114.48 165.18 111.73 148.36C113.17 145.54 117.21 139.83 117.21 139.83C120.83 152.34 128.7 199.5 117.47 263.19C105.77 282.05 94.57 297.51 94.57 297.51L93 273.19C103.85 252.85 121.1 217 119.11 198.83Z" fill="black"/>
<path d="M112.05 28.81C112.2 29.39 112.63 29.81 113.05 29.71C113.47 29.61 113.62 29.08 113.47 28.5C113.32 27.92 112.89 27.5 112.47 27.61C112.05 27.72 111.9 28.23 112.05 28.81Z" fill="#263238"/>
<path d="M118.65 27.36C118.8 27.94 119.23 28.36 119.65 28.26C120.07 28.16 120.22 27.64 120.07 27.06C119.92 26.48 119.5 26.06 119.07 26.16C118.64 26.26 118.5 26.78 118.65 27.36Z" fill="#263238"/>
<path d="M116.63 28.11C117.782 29.7322 119.144 31.1949 120.68 32.46C120.346 32.8311 119.935 33.1246 119.475 33.3198C119.016 33.515 118.519 33.6072 118.02 33.59L116.63 28.11Z" fill="#630F0F"/>
<path d="M115.5 35.7C114.282 35.7122 113.1 35.2863 112.17 34.5C112.154 34.4842 112.14 34.4654 112.131 34.4446C112.122 34.4237 112.117 34.4013 112.117 34.3785C112.116 34.3558 112.12 34.3332 112.129 34.312C112.137 34.2908 112.149 34.2714 112.165 34.255C112.181 34.2386 112.2 34.2254 112.22 34.2163C112.241 34.2072 112.264 34.2022 112.286 34.2018C112.309 34.2013 112.332 34.2053 112.353 34.2136C112.374 34.2219 112.394 34.2342 112.41 34.25C112.996 34.7258 113.681 35.0629 114.415 35.236C115.15 35.4092 115.914 35.414 116.65 35.25C116.672 35.2448 116.695 35.244 116.718 35.2476C116.741 35.2513 116.762 35.2594 116.782 35.2715C116.801 35.2836 116.818 35.2994 116.832 35.318C116.845 35.3366 116.855 35.3577 116.86 35.38C116.865 35.4023 116.866 35.4255 116.862 35.4481C116.859 35.4707 116.851 35.4924 116.838 35.5119C116.826 35.5314 116.811 35.5484 116.792 35.5618C116.773 35.5752 116.752 35.5847 116.73 35.59C116.325 35.6725 115.913 35.7094 115.5 35.7Z" fill="#263238"/>
<path d="M109.43 27.14C109.384 27.1494 109.336 27.1494 109.29 27.14C109.247 27.1226 109.208 27.0967 109.176 27.0639C109.143 27.031 109.118 26.9918 109.101 26.9487C109.084 26.9057 109.076 26.8597 109.078 26.8134C109.079 26.7672 109.09 26.7218 109.11 26.68C109.323 26.1733 109.657 25.7264 110.082 25.3778C110.508 25.0293 111.011 24.7898 111.55 24.68C111.642 24.6709 111.734 24.6967 111.808 24.7522C111.882 24.8077 111.933 24.889 111.95 24.98C111.957 25.026 111.955 25.073 111.944 25.1182C111.932 25.1633 111.912 25.2058 111.884 25.243C111.856 25.2803 111.821 25.3116 111.781 25.3351C111.741 25.3586 111.696 25.3739 111.65 25.38C111.227 25.4753 110.833 25.6715 110.502 25.9519C110.172 26.2322 109.913 26.5884 109.75 26.99C109.716 27.0419 109.667 27.0834 109.611 27.1098C109.555 27.1363 109.492 27.1467 109.43 27.14Z" fill="#263238"/>
<path d="M120.88 24.49C120.828 24.4904 120.777 24.4789 120.73 24.4564C120.683 24.4338 120.642 24.4009 120.61 24.36C120.329 24.0101 119.972 23.7278 119.567 23.534C119.162 23.3401 118.719 23.2397 118.27 23.24C118.178 23.2457 118.087 23.2156 118.016 23.1561C117.945 23.0965 117.9 23.0119 117.89 22.92C117.884 22.8277 117.914 22.7367 117.974 22.666C118.034 22.5952 118.118 22.5501 118.21 22.54C118.772 22.5286 119.329 22.6461 119.839 22.8836C120.349 23.1211 120.797 23.4722 121.15 23.91C121.208 23.9834 121.236 24.0768 121.227 24.1702C121.217 24.2636 121.172 24.3496 121.1 24.41C121.038 24.4611 120.96 24.4894 120.88 24.49V24.49Z" fill="#263238"/>
<path d="M93.94 95.68C91.9482 95.0092 90.0366 94.1205 88.24 93.03C87.8488 92.781 87.4866 92.4892 87.16 92.16C87.62 90.01 88.22 87.85 88.87 85.68C89.52 83.51 90.32 81.29 91.15 79.1C91.98 76.91 92.86 74.73 93.78 72.57C94.24 71.49 94.71 70.41 95.19 69.34L96.63 66.23L86.63 61.11C85.97 62.36 85.43 63.46 84.89 64.65C84.35 65.84 83.89 66.99 83.35 68.17C82.3633 70.5433 81.4633 72.9467 80.65 75.38C78.9549 80.3476 77.7655 85.4735 77.1 90.68V90.95V91.47C77.0749 91.8296 77.0749 92.1904 77.1 92.55C77.1403 93.276 77.2679 93.9945 77.48 94.69C77.8742 95.9161 78.5139 97.0491 79.36 98.02C80.6045 99.3756 82.0984 100.479 83.76 101.27C86.3194 102.477 89.0257 103.345 91.81 103.85C96.8804 104.813 102.042 105.216 107.2 105.05L107.66 99.5C103.017 98.4922 98.4359 97.2168 93.94 95.68V95.68Z" fill="#D5A274"/>
<path d="M109.88 309C109.206 308.984 108.536 308.897 107.88 308.74C107.85 308.73 107.823 308.712 107.8 308.69C107.778 308.667 107.76 308.64 107.75 308.61C107.745 308.578 107.749 308.545 107.762 308.515C107.774 308.485 107.794 308.459 107.82 308.44C108.06 308.27 110.16 306.84 111.06 307.2C111.162 307.239 111.253 307.304 111.323 307.388C111.393 307.472 111.44 307.572 111.46 307.68C111.504 307.841 111.507 308.011 111.468 308.173C111.43 308.335 111.351 308.486 111.24 308.61C110.849 308.901 110.366 309.04 109.88 309ZM108.36 308.5C109.69 308.76 110.68 308.72 111.03 308.38C111.102 308.294 111.151 308.191 111.172 308.081C111.193 307.97 111.185 307.857 111.15 307.75C111.141 307.697 111.119 307.648 111.086 307.606C111.052 307.564 111.009 307.531 110.96 307.51C110.43 307.3 109.11 308 108.36 308.5V308.5Z" fill="#91E460"/>
<path d="M107.94 308.74C107.914 308.749 107.886 308.749 107.86 308.74C107.835 308.728 107.814 308.71 107.798 308.687C107.782 308.664 107.772 308.638 107.77 308.61C107.77 308.52 107.6 306.39 108.35 305.67C108.444 305.578 108.557 305.508 108.682 305.466C108.807 305.425 108.94 305.412 109.07 305.43C109.216 305.436 109.357 305.49 109.469 305.584C109.581 305.678 109.659 305.807 109.69 305.95C109.86 306.76 108.76 308.3 108.02 308.74H107.94ZM108.94 305.74C108.871 305.739 108.803 305.752 108.74 305.777C108.676 305.803 108.618 305.841 108.57 305.89C108.158 306.608 107.986 307.438 108.08 308.26C108.69 307.74 109.48 306.56 109.36 306C109.36 305.89 109.28 305.77 109.02 305.74H108.94Z" fill="#91E460"/>
<path d="M91.62 304.79C90.2976 304.587 89.0351 304.099 87.92 303.36C87.8872 303.345 87.861 303.318 87.8463 303.285C87.8316 303.252 87.8294 303.215 87.84 303.18C87.8495 303.146 87.8688 303.116 87.8955 303.092C87.9221 303.069 87.955 303.055 87.99 303.05C88.39 303.05 91.9 302.79 92.56 303.59C92.6191 303.655 92.6602 303.735 92.6795 303.821C92.6988 303.906 92.6955 303.996 92.67 304.08C92.6393 304.217 92.576 304.345 92.4855 304.453C92.395 304.561 92.28 304.646 92.15 304.7C91.9801 304.761 91.8006 304.792 91.62 304.79V304.79ZM88.57 303.35C90.18 304.24 91.45 304.63 92.02 304.35C92.1025 304.317 92.1756 304.264 92.233 304.196C92.2905 304.128 92.3307 304.047 92.35 303.96C92.3676 303.93 92.3768 303.895 92.3768 303.86C92.3768 303.825 92.3676 303.79 92.35 303.76C91.94 303.36 90 303.29 88.57 303.35Z" fill="#91E460"/>
<path d="M88 303.39C87.9719 303.389 87.9443 303.382 87.9199 303.368C87.8955 303.354 87.8749 303.334 87.86 303.31C87.8477 303.285 87.8412 303.258 87.8412 303.23C87.8412 303.202 87.8477 303.175 87.86 303.15C87.92 303.03 89.25 300.32 90.96 301.15C91.43 301.38 91.47 301.65 91.43 301.84C91.26 302.65 89.04 303.38 88.02 303.41L88 303.39ZM90.31 301.32C89.39 301.32 88.6 302.49 88.31 303.03C89.38 302.9 91.02 302.23 91.12 301.75C91.12 301.65 91.04 301.54 90.82 301.43C90.6614 301.353 90.4864 301.315 90.31 301.32V301.32Z" fill="#91E460"/>
<path d="M106.51 99.42L112.6 97.75L113.43 105.44C113.43 105.44 107.43 107.24 105.94 104.09L106.51 99.42Z" fill="#D5A274"/>
<path d="M106.39 99.58C107.665 98.1971 108.412 96.409 108.5 94.53L110.06 95.38C110.06 95.38 110.37 98.83 109.76 99.82C109.15 100.81 106.39 99.58 106.39 99.58Z" fill="#D5A274"/>
<path d="M115.45 98.51L115.08 105.44H113.43L112.59 97.75L115.45 98.51Z" fill="#D5A274"/>
<path d="M84.1 287.66L95.17 298.08L98.74 294.25L86.07 282.71L84.1 287.66Z" fill="#91E460"/>
<path opacity="0.1" d="M84.1 287.66L95.17 298.08L98.74 294.25L86.07 282.71L84.1 287.66Z" fill="black"/>
<path d="M118.91 120C118.91 120 119.61 176.65 118.41 197.88C117.1 221.12 110.5 298.13 110.5 298.13H96.92C96.92 298.13 97.33 223 96.51 199.99C95.62 174.99 93.32 119.99 93.32 119.99L118.91 120Z" fill="#91E460"/>
<path opacity="0.5" d="M118.91 120C118.91 120 119.61 176.65 118.41 197.88C117.1 221.12 110.5 298.13 110.5 298.13H96.92C96.92 298.13 97.33 223 96.51 199.99C95.62 174.99 93.32 119.99 93.32 119.99L118.91 120Z" fill="black"/>
<path d="M96.38 298.13H111.05L111.86 292.97L95.67 293.78L96.38 298.13Z" fill="#91E460"/>
<path opacity="0.1" d="M96.38 298.13H111.05L111.86 292.97L95.67 293.78L96.38 298.13Z" fill="black"/>
<path d="M88.8 55.54C81.8 56.54 74.63 82.25 74.63 82.25L91.5 88.67C91.5 88.67 95.74 77.67 98.64 69.04C101.68 60.05 96.29 54.44 88.8 55.54Z" fill="#91E460"/>
<path opacity="0.5" d="M88.8 55.54C81.8 56.54 74.63 82.25 74.63 82.25L91.5 88.67C91.5 88.67 95.74 77.67 98.64 69.04C101.68 60.05 96.29 54.44 88.8 55.54Z" fill="white"/>
</svg>
